<?xml version="1.0" encoding="UTF-8" standalone="no"?>
<!DOCTYPE svg PUBLIC "-//W3C//DTD SVG 1.1//EN" "http://www.w3.org/Graphics/SVG/1.1/DTD/svg11.dtd">
<svg xmlns="http://www.w3.org/2000/svg" version="1.1" viewBox="0.00 0.00 498.00 171.00">
<g stroke-width="2.00" fill="none" stroke-linecap="butt">
<path stroke="#808080" vector-effect="non-scaling-stroke" d="
  M 67.43 60.34
  C 67.70 59.15 66.95 58.07 67.07 56.80
  C 67.42 52.87 67.43 47.40 72.51 46.70
  C 76.05 46.21 80.73 47.00 81.57 51.08
  Q 82.04 53.38 82.07 55.61
  Q 82.17 62.03 82.46 68.34
  A 0.92 0.91 86.6 0 0 83.43 69.21
  Q 89.17 68.82 94.59 69.70
  Q 95.10 69.79 95.56 69.57
  Q 97.72 68.56 100.29 69.24
  A 0.87 0.86 -80.8 0 0 101.38 68.45
  C 101.50 66.04 101.97 63.85 101.84 61.36
  Q 101.30 51.17 100.47 47.55
  Q 96.95 32.01 81.98 28.28
  C 79.28 27.60 77.91 27.24 75.56 27.41
  C 69.02 27.90 61.24 28.70 56.34 32.88
  Q 49.17 39.01 47.56 47.74
  C 45.84 57.06 46.32 67.37 46.69 77.07
  C 46.82 80.57 46.33 83.82 46.70 87.29
  Q 47.19 91.88 46.81 96.69
  Q 46.42 101.71 46.43 105.86
  C 46.45 112.93 46.27 120.12 48.55 126.72
  Q 53.84 141.98 70.81 143.03
  Q 78.73 143.52 82.72 142.34
  C 97.01 138.09 101.82 126.36 100.81 112.06
  Q 100.40 106.33 100.17 100.23
  A 1.19 1.18 88.8 0 0 98.98 99.08
  Q 94.21 99.12 89.64 98.20
  A 1.22 1.21 34.9 0 0 88.78 98.35
  Q 86.93 99.48 84.46 99.20
  A 0.82 0.81 5.5 0 0 83.56 99.94
  Q 82.89 107.09 82.95 114.89
  Q 83.02 124.70 74.07 124.81
  Q 69.09 124.87 67.78 120.41
  Q 66.55 116.18 67.00 111.05
  C 67.19 109.00 66.82 107.04 66.86 105.00
  Q 67.10 95.31 67.32 85.36
  Q 67.36 83.44 68.33 74.71
  Q 68.90 69.47 68.41 63.50
  C 68.31 62.24 67.12 61.72 67.43 60.34"
/>
<path stroke="#808080" vector-effect="non-scaling-stroke" d="
  M 129.46 94.16
  Q 135.90 94.18 142.46 94.23
  C 143.78 94.24 145.19 93.37 146.36 94.45
  Q 147.05 95.08 147.01 96.74
  Q 146.90 100.97 146.68 105.41
  Q 146.45 109.83 146.79 114.06
  Q 147.08 117.79 146.76 121.11
  C 146.12 127.47 146.47 134.06 146.42 140.42
  A 0.93 0.93 0.0 0 0 147.32 141.35
  Q 151.44 141.49 155.93 141.87
  Q 160.59 142.26 165.95 141.90
  Q 166.55 141.85 166.55 141.26
  L 166.64 29.80
  A 0.86 0.85 -1.3 0 0 165.74 28.95
  Q 156.11 29.40 147.15 28.77
  Q 146.14 28.70 146.09 29.71
  C 145.69 37.76 145.16 45.85 145.74 54.10
  Q 146.30 62.16 145.28 70.64
  Q 145.07 72.39 146.02 73.85
  A 1.14 1.13 70.7 0 1 145.18 75.60
  Q 138.52 76.23 131.56 75.49
  Q 130.33 75.35 130.21 74.12
  Q 129.71 68.81 130.14 62.94
  Q 130.19 62.37 129.66 62.17
  Q 128.97 61.91 128.19 61.91
  Q 127.60 61.91 127.42 61.35
  Q 127.15 60.53 127.67 59.72
  Q 128.04 59.15 128.59 59.54
  Q 128.99 59.82 129.46 59.90
  A 0.61 0.61 0.0 0 0 130.18 59.30
  L 130.01 29.48
  A 0.68 0.68 0.0 0 0 129.33 28.80
  Q 123.46 28.85 117.75 28.82
  C 114.97 28.81 112.52 27.90 109.67 28.48
  Q 108.75 28.66 108.74 29.60
  Q 108.62 52.51 108.81 76.42
  C 108.89 85.21 108.54 93.78 108.96 103.00
  Q 109.29 110.09 109.46 117.72
  Q 109.59 123.71 109.48 128.86
  Q 109.36 134.53 109.77 140.06
  A 0.95 0.95 0.0 0 0 110.50 140.92
  Q 112.49 141.38 114.62 141.02
  Q 120.86 139.95 127.31 140.39
  A 1.05 1.04 -87.7 0 0 128.43 139.35
  L 128.89 94.73
  A 0.57 0.57 0.0 0 1 129.46 94.16"
/>
<path stroke="#808080" vector-effect="non-scaling-stroke" d="
  M 391.99 92.16
  L 392.19 93.44
  Q 392.25 93.87 392.69 93.88
  L 398.06 94.03
  A 0.66 0.66 0.0 0 0 398.74 93.31
  C 398.57 91.32 397.49 89.42 397.67 87.45
  Q 397.97 84.05 397.35 80.60
  C 397.06 78.97 397.47 77.32 397.35 75.65
  A 0.59 0.59 0.0 0 0 396.72 75.11
  Q 387.73 75.70 378.96 76.37
  Q 376.02 76.60 373.05 76.25
  Q 372.54 76.19 372.55 75.69
  C 372.59 68.88 372.19 61.58 373.11 54.80
  Q 373.57 51.39 372.97 48.21
  A 1.37 1.37 0.0 0 1 374.39 46.59
  Q 387.94 47.31 402.72 46.91
  Q 403.23 46.90 403.40 46.42
  Q 403.93 44.96 403.52 43.40
  C 403.11 41.86 404.04 40.52 403.73 38.94
  Q 402.93 34.79 403.09 30.67
  A 1.43 1.42 2.0 0 0 401.71 29.20
  Q 377.84 28.51 354.45 29.18
  A 0.61 0.60 -1.0 0 0 353.86 29.78
  L 353.52 140.14
  A 1.40 1.40 0.0 0 0 354.93 141.54
  Q 358.62 141.49 362.02 142.53
  Q 362.50 142.67 362.98 142.50
  Q 365.86 141.43 368.89 141.65
  Q 370.27 141.75 371.63 141.79
  Q 387.79 142.30 403.85 142.18
  A 0.75 0.74 1.2 0 0 404.59 141.48
  Q 404.82 137.61 404.28 133.33
  C 403.82 129.68 404.83 126.58 404.52 122.98
  A 0.93 0.92 87.0 0 0 403.58 122.12
  Q 399.19 122.18 395.20 122.07
  C 388.64 121.89 382.11 122.40 375.60 121.88
  Q 375.10 121.84 374.96 121.36
  Q 374.14 118.52 374.59 115.52
  C 375.04 112.52 373.80 110.06 374.28 107.07
  C 374.89 103.19 373.84 98.89 374.47 94.56
  A 0.77 0.77 0.0 0 1 375.29 93.90
  Q 382.40 94.39 390.11 93.93
  Q 390.57 93.91 390.83 93.54
  Q 391.17 93.05 391.21 92.34
  Q 391.23 92.06 391.47 91.95
  Q 391.61 91.87 391.78 91.92
  A 0.32 0.30 5.1 0 1 391.99 92.16"
/>
<path stroke="#808080" vector-effect="non-scaling-stroke" d="
  M 195.51 29.98
  Q 193.16 28.63 190.51 29.22
  A 1.49 1.49 0.0 0 0 189.37 30.47
  Q 188.45 37.39 187.41 44.02
  C 185.77 54.51 183.37 64.61 181.90 74.77
  Q 180.53 84.30 179.04 92.30
  Q 174.61 116.17 171.28 141.47
  Q 171.20 142.09 171.83 142.11
  C 176.18 142.19 180.57 141.92 184.86 142.54
  Q 187.67 142.95 190.83 142.26
  Q 191.26 142.16 191.33 141.73
  C 191.85 138.57 191.84 135.11 192.32 132.28
  Q 193.12 127.60 193.95 122.87
  Q 194.09 122.05 194.93 122.05
  L 210.82 122.13
  A 1.22 1.21 84.5 0 1 212.01 123.12
  L 215.32 140.69
  A 1.07 1.07 0.0 0 0 216.46 141.56
  L 233.21 140.15
  A 0.49 0.49 0.0 0 0 233.66 139.60
  C 233.30 136.54 233.44 133.64 232.68 130.59
  C 231.71 126.69 231.65 122.61 231.02 118.55
  Q 226.47 89.38 222.98 64.91
  Q 221.74 56.24 220.01 47.46
  Q 218.26 38.53 217.57 29.66
  Q 217.52 29.03 216.89 29.00
  C 214.99 28.91 213.32 29.59 211.37 29.45
  Q 204.95 28.97 198.75 29.16
  Q 197.36 29.21 196.20 29.96
  Q 195.86 30.18 195.51 29.98"
/>
<path stroke="#808080" vector-effect="non-scaling-stroke" d="
  M 349.06 36.20
  C 348.88 34.16 349.46 32.25 349.22 30.22
  A 1.24 1.23 87.3 0 0 348.02 29.12
  Q 320.84 28.68 294.14 31.08
  A 0.63 0.62 87.1 0 0 293.57 31.72
  C 293.61 34.33 293.08 36.89 293.41 39.44
  Q 293.89 43.09 293.07 46.31
  Q 292.92 46.90 293.51 47.08
  Q 296.04 47.84 298.41 47.67
  Q 303.78 47.28 310.22 47.84
  Q 310.82 47.89 310.81 48.49
  L 310.11 141.52
  Q 310.11 142.04 310.62 142.08
  Q 312.99 142.26 315.28 142.13
  Q 319.86 141.88 324.90 142.21
  Q 327.13 142.36 329.31 141.89
  Q 329.90 141.76 329.94 141.15
  Q 330.96 126.87 331.07 106.15
  Q 331.18 84.19 331.05 64.51
  Q 331.04 63.49 330.90 62.44
  Q 330.73 61.25 330.89 60.14
  Q 331.46 56.09 331.06 51.72
  Q 331.00 51.13 330.61 50.68
  A 0.69 0.68 46.0 0 1 330.62 49.78
  Q 331.61 48.69 333.15 48.80
  Q 340.65 49.32 348.46 48.84
  Q 349.01 48.81 349.05 48.26
  Q 349.57 41.92 349.06 36.20"
/>
<path stroke="#808080" vector-effect="non-scaling-stroke" d="
  M 260.70 101.17
  Q 270.66 101.86 279.15 98.30
  C 286.97 95.01 290.75 87.70 291.99 79.64
  Q 293.04 72.77 292.23 66.41
  Q 291.69 62.20 291.73 58.03
  Q 291.80 51.00 289.67 44.62
  Q 286.07 33.83 274.75 30.95
  Q 267.66 29.15 258.74 29.65
  Q 254.16 29.91 250.01 29.63
  Q 245.21 29.30 240.85 29.52
  Q 238.23 29.65 238.72 32.23
  C 239.17 34.57 238.55 36.60 238.73 38.90
  Q 239.16 44.53 239.04 48.76
  Q 238.52 67.26 238.68 81.51
  Q 238.89 99.65 238.29 114.17
  C 238.00 121.15 238.53 127.76 238.11 134.48
  C 237.96 136.78 238.60 138.86 238.10 141.18
  A 0.65 0.65 0.0 0 0 238.71 141.96
  L 258.92 142.64
  A 0.96 0.95 -85.4 0 0 259.90 141.80
  Q 260.17 139.54 259.97 137.21
  Q 258.47 119.64 260.15 101.64
  Q 260.20 101.14 260.70 101.17"
/>
<path stroke="#808080" vector-effect="non-scaling-stroke" d="
  M 456.63 109.63
  Q 456.59 109.59 456.58 109.54
  Q 456.51 109.31 456.74 109.26
  Q 457.11 109.16 457.44 108.97
  Q 457.98 108.67 457.76 108.08
  L 454.14 98.59
  A 2.49 2.48 61.3 0 1 454.98 95.71
  Q 459.85 92.09 462.08 85.52
  Q 464.57 78.17 464.05 70.73
  Q 463.53 63.31 463.08 55.52
  C 462.84 51.40 462.33 46.92 460.72 43.17
  Q 456.32 32.88 444.86 30.60
  Q 437.90 29.22 431.30 29.61
  Q 426.40 29.90 421.64 29.61
  Q 416.48 29.30 411.53 29.60
  A 1.44 1.43 -1.5 0 0 410.18 31.02
  C 410.12 37.99 410.73 44.88 410.49 51.66
  Q 409.88 69.08 410.21 84.14
  C 410.55 99.22 409.43 113.69 409.92 127.80
  C 410.00 130.36 409.54 132.85 409.70 135.35
  Q 409.89 138.25 409.76 141.01
  Q 409.70 142.35 411.03 142.25
  Q 418.18 141.70 424.58 142.49
  C 426.52 142.73 428.46 142.62 430.40 142.60
  A 1.15 1.15 0.0 0 0 431.53 141.48
  C 431.68 135.96 430.90 130.71 430.84 125.28
  Q 430.70 113.97 431.61 101.68
  Q 431.68 100.77 432.37 101.38
  Q 432.93 101.88 433.18 102.59
  C 434.53 106.43 436.07 110.16 437.32 114.00
  Q 440.71 124.41 444.57 135.04
  C 445.33 137.14 445.76 139.37 446.62 141.38
  Q 446.84 141.91 447.41 141.91
  L 467.97 141.92
  Q 468.52 141.92 468.43 141.37
  Q 467.47 135.17 464.82 129.87
  C 463.59 127.42 463.30 124.55 462.26 121.97
  Q 459.90 116.16 458.46 110.04
  Q 458.31 109.43 457.71 109.56
  Q 457.34 109.64 456.93 109.71
  Q 456.75 109.74 456.63 109.63"
/>
<path stroke="#808080" vector-effect="non-scaling-stroke" d="
  M 201.11 67.24
  C 200.92 68.46 200.27 69.54 200.22 70.82
  C 199.90 78.96 197.65 86.75 196.56 94.76
  C 196.11 98.04 195.27 101.17 194.54 104.36
  A 0.96 0.95 87.2 0 0 195.77 105.48
  C 199.79 104.15 204.28 104.22 208.41 103.93
  Q 209.11 103.89 208.98 103.20
  C 208.57 100.96 207.90 98.75 207.65 96.49
  Q 206.52 86.48 204.76 75.71
  Q 203.92 70.58 203.41 65.32
  Q 203.01 61.15 201.64 65.11
  Q 201.29 66.11 201.11 67.24"
/>
<path stroke="#808080" vector-effect="non-scaling-stroke" d="
  M 257.44 47.55
  Q 258.56 51.50 258.91 56.07
  Q 259.71 66.42 259.16 77.18
  Q 259.05 79.35 260.00 81.12
  Q 260.27 81.63 260.85 81.69
  Q 264.45 82.00 268.51 81.22
  C 271.50 80.64 272.87 78.28 272.84 75.42
  C 272.75 68.07 273.28 60.88 272.77 53.50
  Q 272.37 47.72 266.91 47.23
  Q 263.49 46.93 260.04 46.32
  Q 258.79 46.09 257.75 46.74
  A 0.72 0.72 0.0 0 0 257.44 47.55"
/>
<path stroke="#808080" vector-effect="non-scaling-stroke" d="
  M 429.54 49.57
  C 431.36 59.62 430.71 69.70 430.95 80.14
  A 1.51 1.51 0.0 0 0 432.31 81.61
  C 437.35 82.11 444.77 82.09 444.32 74.85
  Q 444.03 70.22 444.39 65.53
  C 444.59 62.88 444.34 60.22 444.37 57.57
  C 444.45 51.54 444.28 47.62 437.08 47.00
  Q 433.78 46.72 430.37 46.26
  A 1.15 1.15 0.0 0 0 429.11 47.71
  Q 429.37 48.61 429.54 49.57"
/>
</g>
<path fill="#000000" d="
  M 498.00 0.00
  L 498.00 171.00
  L 0.00 171.00
  L 0.00 0.00
  L 498.00 0.00
  Z
  M 67.43 60.34
  C 67.70 59.15 66.95 58.07 67.07 56.80
  C 67.42 52.87 67.43 47.40 72.51 46.70
  C 76.05 46.21 80.73 47.00 81.57 51.08
  Q 82.04 53.38 82.07 55.61
  Q 82.17 62.03 82.46 68.34
  A 0.92 0.91 86.6 0 0 83.43 69.21
  Q 89.17 68.82 94.59 69.70
  Q 95.10 69.79 95.56 69.57
  Q 97.72 68.56 100.29 69.24
  A 0.87 0.86 -80.8 0 0 101.38 68.45
  C 101.50 66.04 101.97 63.85 101.84 61.36
  Q 101.30 51.17 100.47 47.55
  Q 96.95 32.01 81.98 28.28
  C 79.28 27.60 77.91 27.24 75.56 27.41
  C 69.02 27.90 61.24 28.70 56.34 32.88
  Q 49.17 39.01 47.56 47.74
  C 45.84 57.06 46.32 67.37 46.69 77.07
  C 46.82 80.57 46.33 83.82 46.70 87.29
  Q 47.19 91.88 46.81 96.69
  Q 46.42 101.71 46.43 105.86
  C 46.45 112.93 46.27 120.12 48.55 126.72
  Q 53.84 141.98 70.81 143.03
  Q 78.73 143.52 82.72 142.34
  C 97.01 138.09 101.82 126.36 100.81 112.06
  Q 100.40 106.33 100.17 100.23
  A 1.19 1.18 88.8 0 0 98.98 99.08
  Q 94.21 99.12 89.64 98.20
  A 1.22 1.21 34.9 0 0 88.78 98.35
  Q 86.93 99.48 84.46 99.20
  A 0.82 0.81 5.5 0 0 83.56 99.94
  Q 82.89 107.09 82.95 114.89
  Q 83.02 124.70 74.07 124.81
  Q 69.09 124.87 67.78 120.41
  Q 66.55 116.18 67.00 111.05
  C 67.19 109.00 66.82 107.04 66.86 105.00
  Q 67.10 95.31 67.32 85.36
  Q 67.36 83.44 68.33 74.71
  Q 68.90 69.47 68.41 63.50
  C 68.31 62.24 67.12 61.72 67.43 60.34
  Z
  M 129.46 94.16
  Q 135.90 94.18 142.46 94.23
  C 143.78 94.24 145.19 93.37 146.36 94.45
  Q 147.05 95.08 147.01 96.74
  Q 146.90 100.97 146.68 105.41
  Q 146.45 109.83 146.79 114.06
  Q 147.08 117.79 146.76 121.11
  C 146.12 127.47 146.47 134.06 146.42 140.42
  A 0.93 0.93 0.0 0 0 147.32 141.35
  Q 151.44 141.49 155.93 141.87
  Q 160.59 142.26 165.95 141.90
  Q 166.55 141.85 166.55 141.26
  L 166.64 29.80
  A 0.86 0.85 -1.3 0 0 165.74 28.95
  Q 156.11 29.40 147.15 28.77
  Q 146.14 28.70 146.09 29.71
  C 145.69 37.76 145.16 45.85 145.74 54.10
  Q 146.30 62.16 145.28 70.64
  Q 145.07 72.39 146.02 73.85
  A 1.14 1.13 70.7 0 1 145.18 75.60
  Q 138.52 76.23 131.56 75.49
  Q 130.33 75.35 130.21 74.12
  Q 129.71 68.81 130.14 62.94
  Q 130.19 62.37 129.66 62.17
  Q 128.97 61.91 128.19 61.91
  Q 127.60 61.91 127.42 61.35
  Q 127.15 60.53 127.67 59.72
  Q 128.04 59.15 128.59 59.54
  Q 128.99 59.82 129.46 59.90
  A 0.61 0.61 0.0 0 0 130.18 59.30
  L 130.01 29.48
  A 0.68 0.68 0.0 0 0 129.33 28.80
  Q 123.46 28.85 117.75 28.82
  C 114.97 28.81 112.52 27.90 109.67 28.48
  Q 108.75 28.66 108.74 29.60
  Q 108.62 52.51 108.81 76.42
  C 108.89 85.21 108.54 93.78 108.96 103.00
  Q 109.29 110.09 109.46 117.72
  Q 109.59 123.71 109.48 128.86
  Q 109.36 134.53 109.77 140.06
  A 0.95 0.95 0.0 0 0 110.50 140.92
  Q 112.49 141.38 114.62 141.02
  Q 120.86 139.95 127.31 140.39
  A 1.05 1.04 -87.7 0 0 128.43 139.35
  L 128.89 94.73
  A 0.57 0.57 0.0 0 1 129.46 94.16
  Z
  M 391.99 92.16
  L 392.19 93.44
  Q 392.25 93.87 392.69 93.88
  L 398.06 94.03
  A 0.66 0.66 0.0 0 0 398.74 93.31
  C 398.57 91.32 397.49 89.42 397.67 87.45
  Q 397.97 84.05 397.35 80.60
  C 397.06 78.97 397.47 77.32 397.35 75.65
  A 0.59 0.59 0.0 0 0 396.72 75.11
  Q 387.73 75.70 378.96 76.37
  Q 376.02 76.60 373.05 76.25
  Q 372.54 76.19 372.55 75.69
  C 372.59 68.88 372.19 61.58 373.11 54.80
  Q 373.57 51.39 372.97 48.21
  A 1.37 1.37 0.0 0 1 374.39 46.59
  Q 387.94 47.31 402.72 46.91
  Q 403.23 46.90 403.40 46.42
  Q 403.93 44.96 403.52 43.40
  C 403.11 41.86 404.04 40.52 403.73 38.94
  Q 402.93 34.79 403.09 30.67
  A 1.43 1.42 2.0 0 0 401.71 29.20
  Q 377.84 28.51 354.45 29.18
  A 0.61 0.60 -1.0 0 0 353.86 29.78
  L 353.52 140.14
  A 1.40 1.40 0.0 0 0 354.93 141.54
  Q 358.62 141.49 362.02 142.53
  Q 362.50 142.67 362.98 142.50
  Q 365.86 141.43 368.89 141.65
  Q 370.27 141.75 371.63 141.79
  Q 387.79 142.30 403.85 142.18
  A 0.75 0.74 1.2 0 0 404.59 141.48
  Q 404.82 137.61 404.28 133.33
  C 403.82 129.68 404.83 126.58 404.52 122.98
  A 0.93 0.92 87.0 0 0 403.58 122.12
  Q 399.19 122.18 395.20 122.07
  C 388.64 121.89 382.11 122.40 375.60 121.88
  Q 375.10 121.84 374.96 121.36
  Q 374.14 118.52 374.59 115.52
  C 375.04 112.52 373.80 110.06 374.28 107.07
  C 374.89 103.19 373.84 98.89 374.47 94.56
  A 0.77 0.77 0.0 0 1 375.29 93.90
  Q 382.40 94.39 390.11 93.93
  Q 390.57 93.91 390.83 93.54
  Q 391.17 93.05 391.21 92.34
  Q 391.23 92.06 391.47 91.95
  Q 391.61 91.87 391.78 91.92
  A 0.32 0.30 5.1 0 1 391.99 92.16
  Z
  M 195.51 29.98
  Q 193.16 28.63 190.51 29.22
  A 1.49 1.49 0.0 0 0 189.37 30.47
  Q 188.45 37.39 187.41 44.02
  C 185.77 54.51 183.37 64.61 181.90 74.77
  Q 180.53 84.30 179.04 92.30
  Q 174.61 116.17 171.28 141.47
  Q 171.20 142.09 171.83 142.11
  C 176.18 142.19 180.57 141.92 184.86 142.54
  Q 187.67 142.95 190.83 142.26
  Q 191.26 142.16 191.33 141.73
  C 191.85 138.57 191.84 135.11 192.32 132.28
  Q 193.12 127.60 193.95 122.87
  Q 194.09 122.05 194.93 122.05
  L 210.82 122.13
  A 1.22 1.21 84.5 0 1 212.01 123.12
  L 215.32 140.69
  A 1.07 1.07 0.0 0 0 216.46 141.56
  L 233.21 140.15
  A 0.49 0.49 0.0 0 0 233.66 139.60
  C 233.30 136.54 233.44 133.64 232.68 130.59
  C 231.71 126.69 231.65 122.61 231.02 118.55
  Q 226.47 89.38 222.98 64.91
  Q 221.74 56.24 220.01 47.46
  Q 218.26 38.53 217.57 29.66
  Q 217.52 29.03 216.89 29.00
  C 214.99 28.91 213.32 29.59 211.37 29.45
  Q 204.95 28.97 198.75 29.16
  Q 197.36 29.21 196.20 29.96
  Q 195.86 30.18 195.51 29.98
  Z
  M 349.06 36.20
  C 348.88 34.16 349.46 32.25 349.22 30.22
  A 1.24 1.23 87.3 0 0 348.02 29.12
  Q 320.84 28.68 294.14 31.08
  A 0.63 0.62 87.1 0 0 293.57 31.72
  C 293.61 34.33 293.08 36.89 293.41 39.44
  Q 293.89 43.09 293.07 46.31
  Q 292.92 46.90 293.51 47.08
  Q 296.04 47.84 298.41 47.67
  Q 303.78 47.28 310.22 47.84
  Q 310.82 47.89 310.81 48.49
  L 310.11 141.52
  Q 310.11 142.04 310.62 142.08
  Q 312.99 142.26 315.28 142.13
  Q 319.86 141.88 324.90 142.21
  Q 327.13 142.36 329.31 141.89
  Q 329.90 141.76 329.94 141.15
  Q 330.96 126.87 331.07 106.15
  Q 331.18 84.19 331.05 64.51
  Q 331.04 63.49 330.90 62.44
  Q 330.73 61.25 330.89 60.14
  Q 331.46 56.09 331.06 51.72
  Q 331.00 51.13 330.61 50.68
  A 0.69 0.68 46.0 0 1 330.62 49.78
  Q 331.61 48.69 333.15 48.80
  Q 340.65 49.32 348.46 48.84
  Q 349.01 48.81 349.05 48.26
  Q 349.57 41.92 349.06 36.20
  Z
  M 260.70 101.17
  Q 270.66 101.86 279.15 98.30
  C 286.97 95.01 290.75 87.70 291.99 79.64
  Q 293.04 72.77 292.23 66.41
  Q 291.69 62.20 291.73 58.03
  Q 291.80 51.00 289.67 44.62
  Q 286.07 33.83 274.75 30.95
  Q 267.66 29.15 258.74 29.65
  Q 254.16 29.91 250.01 29.63
  Q 245.21 29.30 240.85 29.52
  Q 238.23 29.65 238.72 32.23
  C 239.17 34.57 238.55 36.60 238.73 38.90
  Q 239.16 44.53 239.04 48.76
  Q 238.52 67.26 238.68 81.51
  Q 238.89 99.65 238.29 114.17
  C 238.00 121.15 238.53 127.76 238.11 134.48
  C 237.96 136.78 238.60 138.86 238.10 141.18
  A 0.65 0.65 0.0 0 0 238.71 141.96
  L 258.92 142.64
  A 0.96 0.95 -85.4 0 0 259.90 141.80
  Q 260.17 139.54 259.97 137.21
  Q 258.47 119.64 260.15 101.64
  Q 260.20 101.14 260.70 101.17
  Z
  M 456.63 109.63
  Q 456.59 109.59 456.58 109.54
  Q 456.51 109.31 456.74 109.26
  Q 457.11 109.16 457.44 108.97
  Q 457.98 108.67 457.76 108.08
  L 454.14 98.59
  A 2.49 2.48 61.3 0 1 454.98 95.71
  Q 459.85 92.09 462.08 85.52
  Q 464.57 78.17 464.05 70.73
  Q 463.53 63.31 463.08 55.52
  C 462.84 51.40 462.33 46.92 460.72 43.17
  Q 456.32 32.88 444.86 30.60
  Q 437.90 29.22 431.30 29.61
  Q 426.40 29.90 421.64 29.61
  Q 416.48 29.30 411.53 29.60
  A 1.44 1.43 -1.5 0 0 410.18 31.02
  C 410.12 37.99 410.73 44.88 410.49 51.66
  Q 409.88 69.08 410.21 84.14
  C 410.55 99.22 409.43 113.69 409.92 127.80
  C 410.00 130.36 409.54 132.85 409.70 135.35
  Q 409.89 138.25 409.76 141.01
  Q 409.70 142.35 411.03 142.25
  Q 418.18 141.70 424.58 142.49
  C 426.52 142.73 428.46 142.62 430.40 142.60
  A 1.15 1.15 0.0 0 0 431.53 141.48
  C 431.68 135.96 430.90 130.71 430.84 125.28
  Q 430.70 113.97 431.61 101.68
  Q 431.68 100.77 432.37 101.38
  Q 432.93 101.88 433.18 102.59
  C 434.53 106.43 436.07 110.16 437.32 114.00
  Q 440.71 124.41 444.57 135.04
  C 445.33 137.14 445.76 139.37 446.62 141.38
  Q 446.84 141.91 447.41 141.91
  L 467.97 141.92
  Q 468.52 141.92 468.43 141.37
  Q 467.47 135.17 464.82 129.87
  C 463.59 127.42 463.30 124.55 462.26 121.97
  Q 459.90 116.16 458.46 110.04
  Q 458.31 109.43 457.71 109.56
  Q 457.34 109.64 456.93 109.71
  Q 456.75 109.74 456.63 109.63
  Z"
/>
<path fill="#ffffff" d="
  M 67.43 60.34
  C 67.12 61.72 68.31 62.24 68.41 63.50
  Q 68.90 69.47 68.33 74.71
  Q 67.36 83.44 67.32 85.36
  Q 67.10 95.31 66.86 105.00
  C 66.82 107.04 67.19 109.00 67.00 111.05
  Q 66.55 116.18 67.78 120.41
  Q 69.09 124.87 74.07 124.81
  Q 83.02 124.70 82.95 114.89
  Q 82.89 107.09 83.56 99.94
  A 0.82 0.81 5.5 0 1 84.46 99.20
  Q 86.93 99.48 88.78 98.35
  A 1.22 1.21 34.9 0 1 89.64 98.20
  Q 94.21 99.12 98.98 99.08
  A 1.19 1.18 88.8 0 1 100.17 100.23
  Q 100.40 106.33 100.81 112.06
  C 101.82 126.36 97.01 138.09 82.72 142.34
  Q 78.73 143.52 70.81 143.03
  Q 53.84 141.98 48.55 126.72
  C 46.27 120.12 46.45 112.93 46.43 105.86
  Q 46.42 101.71 46.81 96.69
  Q 47.19 91.88 46.70 87.29
  C 46.33 83.82 46.82 80.57 46.69 77.07
  C 46.32 67.37 45.84 57.06 47.56 47.74
  Q 49.17 39.01 56.34 32.88
  C 61.24 28.70 69.02 27.90 75.56 27.41
  C 77.91 27.24 79.28 27.60 81.98 28.28
  Q 96.95 32.01 100.47 47.55
  Q 101.30 51.17 101.84 61.36
  C 101.97 63.85 101.50 66.04 101.38 68.45
  A 0.87 0.86 -80.8 0 1 100.29 69.24
  Q 97.72 68.56 95.56 69.57
  Q 95.10 69.79 94.59 69.70
  Q 89.17 68.82 83.43 69.21
  A 0.92 0.91 86.6 0 1 82.46 68.34
  Q 82.17 62.03 82.07 55.61
  Q 82.04 53.38 81.57 51.08
  C 80.73 47.00 76.05 46.21 72.51 46.70
  C 67.43 47.40 67.42 52.87 67.07 56.80
  C 66.95 58.07 67.70 59.15 67.43 60.34
  Z"
/>
<path fill="#ffffff" d="
  M 129.46 94.16
  A 0.57 0.57 0.0 0 0 128.89 94.73
  L 128.43 139.35
  A 1.05 1.04 -87.7 0 1 127.31 140.39
  Q 120.86 139.95 114.62 141.02
  Q 112.49 141.38 110.50 140.92
  A 0.95 0.95 0.0 0 1 109.77 140.06
  Q 109.36 134.53 109.48 128.86
  Q 109.59 123.71 109.46 117.72
  Q 109.29 110.09 108.96 103.00
  C 108.54 93.78 108.89 85.21 108.81 76.42
  Q 108.62 52.51 108.74 29.60
  Q 108.75 28.66 109.67 28.48
  C 112.52 27.90 114.97 28.81 117.75 28.82
  Q 123.46 28.85 129.33 28.80
  A 0.68 0.68 0.0 0 1 130.01 29.48
  L 130.18 59.30
  A 0.61 0.61 0.0 0 1 129.46 59.90
  Q 128.99 59.82 128.59 59.54
  Q 128.04 59.15 127.67 59.72
  Q 127.15 60.53 127.42 61.35
  Q 127.60 61.91 128.19 61.91
  Q 128.97 61.91 129.66 62.17
  Q 130.19 62.37 130.14 62.94
  Q 129.71 68.81 130.21 74.12
  Q 130.33 75.35 131.56 75.49
  Q 138.52 76.23 145.18 75.60
  A 1.14 1.13 70.7 0 0 146.02 73.85
  Q 145.07 72.39 145.28 70.64
  Q 146.30 62.16 145.74 54.10
  C 145.16 45.85 145.69 37.76 146.09 29.71
  Q 146.14 28.70 147.15 28.77
  Q 156.11 29.40 165.74 28.95
  A 0.86 0.85 -1.3 0 1 166.64 29.80
  L 166.55 141.26
  Q 166.55 141.85 165.95 141.90
  Q 160.59 142.26 155.93 141.87
  Q 151.44 141.49 147.32 141.35
  A 0.93 0.93 0.0 0 1 146.42 140.42
  C 146.47 134.06 146.12 127.47 146.76 121.11
  Q 147.08 117.79 146.79 114.06
  Q 146.45 109.83 146.68 105.41
  Q 146.90 100.97 147.01 96.74
  Q 147.05 95.08 146.36 94.45
  C 145.19 93.37 143.78 94.24 142.46 94.23
  Q 135.90 94.18 129.46 94.16
  Z"
/>
<path fill="#ffffff" d="
  M 391.78 91.92
  Q 391.61 91.87 391.47 91.95
  Q 391.23 92.06 391.21 92.34
  Q 391.17 93.05 390.83 93.54
  Q 390.57 93.91 390.11 93.93
  Q 382.40 94.39 375.29 93.90
  A 0.77 0.77 0.0 0 0 374.47 94.56
  C 373.84 98.89 374.89 103.19 374.28 107.07
  C 373.80 110.06 375.04 112.52 374.59 115.52
  Q 374.14 118.52 374.96 121.36
  Q 375.10 121.84 375.60 121.88
  C 382.11 122.40 388.64 121.89 395.20 122.07
  Q 399.19 122.18 403.58 122.12
  A 0.93 0.92 87.0 0 1 404.52 122.98
  C 404.83 126.58 403.82 129.68 404.28 133.33
  Q 404.82 137.61 404.59 141.48
  A 0.75 0.74 1.2 0 1 403.85 142.18
  Q 387.79 142.30 371.63 141.79
  Q 370.27 141.75 368.89 141.65
  Q 365.86 141.43 362.98 142.50
  Q 362.50 142.67 362.02 142.53
  Q 358.62 141.49 354.93 141.54
  A 1.40 1.40 0.0 0 1 353.52 140.14
  L 353.86 29.78
  A 0.61 0.60 -1.0 0 1 354.45 29.18
  Q 377.84 28.51 401.71 29.20
  A 1.43 1.42 2.0 0 1 403.09 30.67
  Q 402.93 34.79 403.73 38.94
  C 404.04 40.52 403.11 41.86 403.52 43.40
  Q 403.93 44.96 403.40 46.42
  Q 403.23 46.90 402.72 46.91
  Q 387.94 47.31 374.39 46.59
  A 1.37 1.37 0.0 0 0 372.97 48.21
  Q 373.57 51.39 373.11 54.80
  C 372.19 61.58 372.59 68.88 372.55 75.69
  Q 372.54 76.19 373.05 76.25
  Q 376.02 76.60 378.96 76.37
  Q 387.73 75.70 396.72 75.11
  A 0.59 0.59 0.0 0 1 397.35 75.65
  C 397.47 77.32 397.06 78.97 397.35 80.60
  Q 397.97 84.05 397.67 87.45
  C 397.49 89.42 398.57 91.32 398.74 93.31
  A 0.66 0.66 0.0 0 1 398.06 94.03
  L 392.69 93.88
  Q 392.25 93.87 392.19 93.44
  L 391.99 92.16
  A 0.32 0.30 5.1 0 0 391.78 91.92
  Z"
/>
<path fill="#ffffff" d="
  M 196.20 29.96
  Q 197.36 29.21 198.75 29.16
  Q 204.95 28.97 211.37 29.45
  C 213.32 29.59 214.99 28.91 216.89 29.00
  Q 217.52 29.03 217.57 29.66
  Q 218.26 38.53 220.01 47.46
  Q 221.74 56.24 222.98 64.91
  Q 226.47 89.38 231.02 118.55
  C 231.65 122.61 231.71 126.69 232.68 130.59
  C 233.44 133.64 233.30 136.54 233.66 139.60
  A 0.49 0.49 0.0 0 1 233.21 140.15
  L 216.46 141.56
  A 1.07 1.07 0.0 0 1 215.32 140.69
  L 212.01 123.12
  A 1.22 1.21 84.5 0 0 210.82 122.13
  L 194.93 122.05
  Q 194.09 122.05 193.95 122.87
  Q 193.12 127.60 192.32 132.28
  C 191.84 135.11 191.85 138.57 191.33 141.73
  Q 191.26 142.16 190.83 142.26
  Q 187.67 142.95 184.86 142.54
  C 180.57 141.92 176.18 142.19 171.83 142.11
  Q 171.20 142.09 171.28 141.47
  Q 174.61 116.17 179.04 92.30
  Q 180.53 84.30 181.90 74.77
  C 183.37 64.61 185.77 54.51 187.41 44.02
  Q 188.45 37.39 189.37 30.47
  A 1.49 1.49 0.0 0 1 190.51 29.22
  Q 193.16 28.63 195.51 29.98
  Q 195.86 30.18 196.20 29.96
  Z
  M 201.11 67.24
  C 200.92 68.46 200.27 69.54 200.22 70.82
  C 199.90 78.96 197.65 86.75 196.56 94.76
  C 196.11 98.04 195.27 101.17 194.54 104.36
  A 0.96 0.95 87.2 0 0 195.77 105.48
  C 199.79 104.15 204.28 104.22 208.41 103.93
  Q 209.11 103.89 208.98 103.20
  C 208.57 100.96 207.90 98.75 207.65 96.49
  Q 206.52 86.48 204.76 75.71
  Q 203.92 70.58 203.41 65.32
  Q 203.01 61.15 201.64 65.11
  Q 201.29 66.11 201.11 67.24
  Z"
/>
<path fill="#ffffff" d="
  M 349.06 36.20
  Q 349.57 41.92 349.05 48.26
  Q 349.01 48.81 348.46 48.84
  Q 340.65 49.32 333.15 48.80
  Q 331.61 48.69 330.62 49.78
  A 0.69 0.68 46.0 0 0 330.61 50.68
  Q 331.00 51.13 331.06 51.72
  Q 331.46 56.09 330.89 60.14
  Q 330.73 61.25 330.90 62.44
  Q 331.04 63.49 331.05 64.51
  Q 331.18 84.19 331.07 106.15
  Q 330.96 126.87 329.94 141.15
  Q 329.90 141.76 329.31 141.89
  Q 327.13 142.36 324.90 142.21
  Q 319.86 141.88 315.28 142.13
  Q 312.99 142.26 310.62 142.08
  Q 310.11 142.04 310.11 141.52
  L 310.81 48.49
  Q 310.82 47.89 310.22 47.84
  Q 303.78 47.28 298.41 47.67
  Q 296.04 47.84 293.51 47.08
  Q 292.92 46.90 293.07 46.31
  Q 293.89 43.09 293.41 39.44
  C 293.08 36.89 293.61 34.33 293.57 31.72
  A 0.63 0.62 87.1 0 1 294.14 31.08
  Q 320.84 28.68 348.02 29.12
  A 1.24 1.23 87.3 0 1 349.22 30.22
  C 349.46 32.25 348.88 34.16 349.06 36.20
  Z"
/>
<path fill="#ffffff" d="
  M 260.15 101.64
  Q 258.47 119.64 259.97 137.21
  Q 260.17 139.54 259.90 141.80
  A 0.96 0.95 -85.4 0 1 258.92 142.64
  L 238.71 141.96
  A 0.65 0.65 0.0 0 1 238.10 141.18
  C 238.60 138.86 237.96 136.78 238.11 134.48
  C 238.53 127.76 238.00 121.15 238.29 114.17
  Q 238.89 99.65 238.68 81.51
  Q 238.52 67.26 239.04 48.76
  Q 239.16 44.53 238.73 38.90
  C 238.55 36.60 239.17 34.57 238.72 32.23
  Q 238.23 29.65 240.85 29.52
  Q 245.21 29.30 250.01 29.63
  Q 254.16 29.91 258.74 29.65
  Q 267.66 29.15 274.75 30.95
  Q 286.07 33.83 289.67 44.62
  Q 291.80 51.00 291.73 58.03
  Q 291.69 62.20 292.23 66.41
  Q 293.04 72.77 291.99 79.64
  C 290.75 87.70 286.97 95.01 279.15 98.30
  Q 270.66 101.86 260.70 101.17
  Q 260.20 101.14 260.15 101.64
  Z
  M 257.44 47.55
  Q 258.56 51.50 258.91 56.07
  Q 259.71 66.42 259.16 77.18
  Q 259.05 79.35 260.00 81.12
  Q 260.27 81.63 260.85 81.69
  Q 264.45 82.00 268.51 81.22
  C 271.50 80.64 272.87 78.28 272.84 75.42
  C 272.75 68.07 273.28 60.88 272.77 53.50
  Q 272.37 47.72 266.91 47.23
  Q 263.49 46.93 260.04 46.32
  Q 258.79 46.09 257.75 46.74
  A 0.72 0.72 0.0 0 0 257.44 47.55
  Z"
/>
<path fill="#ffffff" d="
  M 456.93 109.71
  Q 457.34 109.64 457.71 109.56
  Q 458.31 109.43 458.46 110.04
  Q 459.90 116.16 462.26 121.97
  C 463.30 124.55 463.59 127.42 464.82 129.87
  Q 467.47 135.17 468.43 141.37
  Q 468.52 141.92 467.97 141.92
  L 447.41 141.91
  Q 446.84 141.91 446.62 141.38
  C 445.76 139.37 445.33 137.14 444.57 135.04
  Q 440.71 124.41 437.32 114.00
  C 436.07 110.16 434.53 106.43 433.18 102.59
  Q 432.93 101.88 432.37 101.38
  Q 431.68 100.77 431.61 101.68
  Q 430.70 113.97 430.84 125.28
  C 430.90 130.71 431.68 135.96 431.53 141.48
  A 1.15 1.15 0.0 0 1 430.40 142.60
  C 428.46 142.62 426.52 142.73 424.58 142.49
  Q 418.18 141.70 411.03 142.25
  Q 409.70 142.35 409.76 141.01
  Q 409.89 138.25 409.70 135.35
  C 409.54 132.85 410.00 130.36 409.92 127.80
  C 409.43 113.69 410.55 99.22 410.21 84.14
  Q 409.88 69.08 410.49 51.66
  C 410.73 44.88 410.12 37.99 410.18 31.02
  A 1.44 1.43 -1.5 0 1 411.53 29.60
  Q 416.48 29.30 421.64 29.61
  Q 426.40 29.90 431.30 29.61
  Q 437.90 29.22 444.86 30.60
  Q 456.32 32.88 460.72 43.17
  C 462.33 46.92 462.84 51.40 463.08 55.52
  Q 463.53 63.31 464.05 70.73
  Q 464.57 78.17 462.08 85.52
  Q 459.85 92.09 454.98 95.71
  A 2.49 2.48 61.3 0 0 454.14 98.59
  L 457.76 108.08
  Q 457.98 108.67 457.44 108.97
  Q 457.11 109.16 456.74 109.26
  Q 456.51 109.31 456.58 109.54
  Q 456.59 109.59 456.63 109.63
  Q 456.75 109.74 456.93 109.71
  Z
  M 429.54 49.57
  C 431.36 59.62 430.71 69.70 430.95 80.14
  A 1.51 1.51 0.0 0 0 432.31 81.61
  C 437.35 82.11 444.77 82.09 444.32 74.85
  Q 444.03 70.22 444.39 65.53
  C 444.59 62.88 444.34 60.22 444.37 57.57
  C 444.45 51.54 444.28 47.62 437.08 47.00
  Q 433.78 46.72 430.37 46.26
  A 1.15 1.15 0.0 0 0 429.11 47.71
  Q 429.37 48.61 429.54 49.57
  Z"
/>
<path fill="#000000" d="
  M 257.44 47.55
  A 0.72 0.72 0.0 0 1 257.75 46.74
  Q 258.79 46.09 260.04 46.32
  Q 263.49 46.93 266.91 47.23
  Q 272.37 47.72 272.77 53.50
  C 273.28 60.88 272.75 68.07 272.84 75.42
  C 272.87 78.28 271.50 80.64 268.51 81.22
  Q 264.45 82.00 260.85 81.69
  Q 260.27 81.63 260.00 81.12
  Q 259.05 79.35 259.16 77.18
  Q 259.71 66.42 258.91 56.07
  Q 258.56 51.50 257.44 47.55
  Z"
/>
<path fill="#000000" d="
  M 429.54 49.57
  Q 429.37 48.61 429.11 47.71
  A 1.15 1.15 0.0 0 1 430.37 46.26
  Q 433.78 46.72 437.08 47.00
  C 444.28 47.62 444.45 51.54 444.37 57.57
  C 444.34 60.22 444.59 62.88 444.39 65.53
  Q 444.03 70.22 444.32 74.85
  C 444.77 82.09 437.35 82.11 432.31 81.61
  A 1.51 1.51 0.0 0 1 430.95 80.14
  C 430.71 69.70 431.36 59.62 429.54 49.57
  Z"
/>
<path fill="#000000" d="
  M 201.11 67.24
  Q 201.29 66.11 201.64 65.11
  Q 203.01 61.15 203.41 65.32
  Q 203.92 70.58 204.76 75.71
  Q 206.52 86.48 207.65 96.49
  C 207.90 98.75 208.57 100.96 208.98 103.20
  Q 209.11 103.89 208.41 103.93
  C 204.28 104.22 199.79 104.15 195.77 105.48
  A 0.96 0.95 87.2 0 1 194.54 104.36
  C 195.27 101.17 196.11 98.04 196.56 94.76
  C 197.65 86.75 199.90 78.96 200.22 70.82
  C 200.27 69.54 200.92 68.46 201.11 67.24
  Z"
/>
</svg>
