<?xml version="1.0" encoding="UTF-8" standalone="no"?>
<!DOCTYPE svg PUBLIC "-//W3C//DTD SVG 1.1//EN" "http://www.w3.org/Graphics/SVG/1.1/DTD/svg11.dtd">
<svg xmlns="http://www.w3.org/2000/svg" version="1.1" viewBox="0.00 0.00 500.00 172.00">
<g stroke-width="2.00" fill="none" stroke-linecap="butt">
<path stroke="#808080" vector-effect="non-scaling-stroke" d="
  M 88.64 97.92
  C 88.09 99.64 86.54 100.11 85.00 99.23
  Q 84.35 98.85 84.22 99.60
  Q 82.94 107.41 83.27 112.48
  C 83.57 117.03 82.84 121.13 79.04 123.77
  C 76.01 125.87 70.50 125.60 68.67 121.67
  Q 67.07 118.24 67.16 114.86
  Q 67.28 110.45 67.22 105.42
  Q 67.11 96.80 67.90 88.72
  C 68.51 82.45 68.29 76.15 68.59 69.93
  Q 68.87 64.16 67.64 59.11
  Q 67.03 56.63 67.44 54.70
  C 67.98 52.13 68.81 47.51 71.61 46.62
  C 75.43 45.41 80.93 46.32 81.40 51.39
  Q 81.56 53.07 82.29 54.65
  C 82.95 56.04 82.21 58.24 82.39 59.86
  Q 82.90 64.25 82.95 68.78
  Q 82.96 69.37 83.54 69.38
  C 86.99 69.46 90.97 69.03 94.35 69.89
  Q 94.85 70.02 95.32 69.81
  L 97.08 69.04
  Q 97.79 68.73 98.52 69.00
  L 100.15 69.62
  Q 100.77 69.85 100.91 69.20
  Q 102.16 63.26 101.77 59.41
  Q 101.24 54.24 100.59 49.14
  C 100.12 45.45 99.48 41.89 97.17 38.88
  C 94.32 35.16 92.80 32.09 88.04 30.39
  Q 84.47 29.11 80.27 27.71
  Q 77.92 26.93 74.82 27.29
  Q 67.15 28.18 62.24 29.81
  Q 51.87 33.26 48.73 44.44
  Q 45.87 54.67 46.11 63.76
  C 46.56 80.21 46.75 93.91 46.28 106.62
  Q 45.97 114.85 47.89 123.71
  Q 49.36 130.46 53.01 134.58
  Q 57.97 140.19 63.54 141.77
  C 68.26 143.10 73.35 143.04 78.28 142.83
  Q 84.47 142.56 88.58 140.11
  C 93.81 136.97 98.19 132.20 99.58 126.31
  Q 102.10 115.59 100.33 107.48
  C 99.77 104.94 100.25 102.45 99.81 99.83
  A 1.69 1.68 81.9 0 0 97.96 98.44
  Q 93.67 98.93 89.57 97.46
  Q 88.87 97.21 88.64 97.92"
/>
<path stroke="#808080" vector-effect="non-scaling-stroke" d="
  M 128.26 60.49
  L 129.42 59.73
  Q 129.92 59.41 129.92 58.82
  L 130.06 29.56
  A 0.75 0.75 0.0 0 0 129.27 28.81
  Q 120.12 29.30 111.39 28.40
  Q 109.06 28.16 109.05 30.56
  Q 108.89 67.74 109.18 101.94
  Q 109.25 111.33 109.69 122.49
  Q 109.85 126.77 109.57 131.57
  C 109.42 134.16 109.99 136.65 109.61 139.14
  A 1.87 1.87 0.0 0 0 111.62 141.29
  Q 120.38 140.51 128.44 140.65
  A 0.42 0.42 0.0 0 0 128.87 140.24
  L 129.01 94.87
  A 0.67 0.67 0.0 0 1 129.70 94.20
  L 142.88 94.45
  Q 143.38 94.46 143.80 94.19
  Q 144.09 94.00 144.30 93.71
  Q 144.82 92.97 145.37 93.69
  C 146.00 94.54 146.97 95.33 147.07 96.44
  Q 147.35 99.71 146.49 102.26
  Q 146.29 102.87 146.52 103.47
  Q 147.03 104.84 146.68 106.11
  C 145.92 108.80 146.54 111.90 146.73 114.67
  Q 146.94 117.85 146.60 120.63
  C 145.78 127.17 146.00 134.10 146.11 140.50
  Q 146.12 141.14 146.75 141.21
  Q 155.95 142.18 165.51 141.97
  A 0.71 0.71 0.0 0 0 166.20 141.26
  Q 166.13 126.20 166.15 110.25
  Q 166.15 105.60 166.59 100.30
  Q 166.73 98.66 166.55 97.20
  C 166.23 94.62 166.82 92.02 166.83 89.42
  C 166.84 86.56 166.91 83.80 166.56 80.95
  C 166.26 78.45 165.49 71.92 166.90 69.68
  Q 167.20 69.20 166.94 68.70
  C 166.72 68.27 166.58 67.64 166.64 67.16
  Q 167.05 63.67 166.56 60.56
  C 165.94 56.68 166.38 52.94 166.16 49.08
  Q 166.11 48.23 166.45 47.48
  C 167.01 46.27 166.14 44.82 166.13 43.52
  Q 166.06 37.13 166.38 30.12
  A 1.11 1.10 89.1 0 0 165.20 28.97
  Q 156.22 29.61 147.39 28.81
  Q 146.02 28.69 146.02 30.07
  Q 146.00 35.96 145.30 40.79
  C 145.11 42.12 145.94 43.14 145.54 44.56
  C 144.31 48.94 146.17 52.09 146.17 56.20
  Q 146.18 63.32 145.30 69.80
  C 145.05 71.70 145.53 73.05 146.00 74.80
  A 0.65 0.64 79.5 0 1 145.44 75.62
  Q 138.13 76.36 130.98 75.43
  A 1.10 1.10 0.0 0 1 130.02 74.35
  L 129.92 63.33
  Q 129.91 62.83 129.61 62.42
  Q 129.11 61.75 128.31 61.37
  A 0.51 0.51 0.0 0 1 128.26 60.49"
/>
<path stroke="#808080" vector-effect="non-scaling-stroke" d="
  M 231.94 128.30
  Q 233.04 126.41 231.67 124.84
  A 1.45 1.41 26.6 0 1 231.32 123.83
  C 231.49 120.13 230.45 116.68 230.06 112.98
  Q 229.12 104.08 227.78 94.95
  C 227.45 92.72 226.57 90.79 226.39 88.55
  Q 226.21 86.38 225.61 84.11
  Q 225.05 82.00 224.84 79.07
  Q 223.92 66.58 221.50 54.77
  Q 219.97 47.29 219.32 42.38
  Q 218.47 35.92 217.77 29.65
  A 1.01 1.00 -13.3 0 0 216.42 28.82
  Q 213.20 30.02 210.36 29.50
  C 206.93 28.88 203.45 29.23 200.01 29.14
  C 198.64 29.10 197.54 29.78 196.25 30.07
  Q 195.75 30.18 195.30 29.95
  Q 193.02 28.79 191.10 29.04
  A 2.14 2.13 87.6 0 0 189.23 31.08
  C 188.87 40.30 186.30 49.08 185.03 57.50
  Q 184.00 64.34 182.53 71.70
  Q 182.07 74.01 181.70 76.30
  Q 180.16 85.80 178.64 95.87
  C 177.50 103.46 175.29 111.31 174.48 119.25
  Q 173.67 127.07 172.64 135.57
  Q 172.58 136.06 172.30 136.48
  Q 170.90 138.62 171.16 141.44
  A 0.64 0.64 0.0 0 0 171.82 142.03
  Q 180.33 141.75 187.37 142.51
  Q 189.70 142.76 191.25 141.25
  Q 191.64 140.87 191.62 140.33
  Q 191.45 136.21 192.68 132.20
  C 193.66 129.04 193.74 125.84 194.05 122.57
  Q 194.11 121.94 194.74 121.94
  L 210.97 122.05
  Q 212.56 122.06 212.75 123.64
  C 213.25 127.70 213.64 131.80 214.61 135.76
  Q 215.22 138.21 215.04 140.58
  Q 214.97 141.52 215.91 141.52
  Q 220.77 141.48 225.65 140.75
  C 228.24 140.37 230.69 140.94 233.27 140.61
  Q 233.96 140.52 233.93 139.84
  L 233.66 132.10
  Q 233.63 131.39 233.21 130.83
  L 231.99 129.21
  Q 231.66 128.78 231.94 128.30"
/>
<path stroke="#808080" vector-effect="non-scaling-stroke" d="
  M 309.90 47.21
  Q 310.74 47.23 310.76 48.07
  Q 310.94 56.00 310.47 63.99
  Q 310.38 65.54 310.74 67.21
  C 311.31 69.84 310.73 72.38 310.44 74.99
  Q 310.17 77.32 310.19 79.55
  Q 310.28 89.26 310.23 99.01
  C 310.22 101.40 310.65 103.75 310.44 106.04
  Q 310.23 108.26 310.21 110.40
  Q 310.03 125.18 310.21 141.26
  Q 310.21 142.00 310.95 142.00
  L 329.24 142.00
  Q 329.83 142.00 329.88 141.41
  Q 330.90 128.93 330.98 108.50
  Q 331.06 89.28 330.95 62.61
  Q 330.93 59.64 331.08 56.70
  Q 331.24 53.43 330.65 50.68
  A 1.55 1.55 0.0 0 1 332.32 48.81
  Q 340.93 49.68 348.81 48.80
  Q 349.21 48.76 349.25 48.36
  Q 349.87 41.91 349.10 35.74
  C 348.85 33.76 349.82 32.36 349.56 30.40
  A 1.35 1.35 0.0 0 0 348.26 29.23
  Q 335.78 28.84 323.86 29.51
  Q 315.94 29.95 306.81 29.92
  C 302.70 29.91 298.84 30.93 294.75 30.97
  Q 294.11 30.98 294.07 31.63
  Q 293.95 33.78 293.68 36.07
  C 293.26 39.53 294.41 42.61 293.66 46.16
  A 0.70 0.70 0.0 0 0 294.23 47.00
  Q 296.74 47.38 299.26 47.28
  Q 304.85 47.06 309.90 47.21"
/>
<path stroke="#808080" vector-effect="non-scaling-stroke" d="
  M 372.86 75.20
  C 372.85 68.40 372.46 61.24 373.50 54.49
  Q 374.00 51.20 373.34 47.77
  A 1.37 1.37 0.0 0 1 374.80 46.15
  C 377.75 46.39 380.73 46.84 383.72 46.84
  Q 393.91 46.84 403.23 46.82
  A 0.79 0.78 -1.0 0 0 404.02 46.01
  L 403.45 30.66
  A 1.40 1.40 0.0 0 0 402.09 29.30
  Q 378.84 28.64 354.77 29.24
  A 0.77 0.77 0.0 0 0 354.02 30.01
  L 353.89 140.91
  A 0.73 0.73 0.0 0 0 354.70 141.64
  Q 358.25 141.28 361.72 142.56
  A 2.17 2.16 -45.2 0 0 363.24 142.55
  C 367.16 141.05 370.87 141.99 374.97 141.99
  Q 390.25 141.97 404.45 142.00
  A 0.29 0.29 0.0 0 0 404.74 141.73
  Q 404.99 136.72 404.36 132.86
  C 403.76 129.24 405.11 126.00 404.58 122.31
  Q 404.53 121.96 404.18 121.96
  L 375.73 121.95
  Q 375.08 121.95 374.96 121.32
  Q 374.38 118.36 374.82 115.19
  C 375.20 112.44 373.89 110.17 374.34 107.49
  C 375.10 103.00 373.86 98.51 374.86 93.79
  Q 374.98 93.20 375.59 93.21
  Q 378.10 93.26 380.71 94.17
  Q 383.98 95.31 386.14 93.57
  Q 386.96 92.91 387.94 93.31
  Q 389.89 94.13 391.11 92.36
  Q 392.29 90.65 392.96 92.61
  Q 393.11 93.05 393.45 93.36
  Q 393.92 93.81 394.56 93.66
  Q 396.32 93.24 397.81 94.30
  A 0.56 0.55 -65.7 0 0 398.67 93.97
  Q 399.26 91.37 398.03 89.28
  Q 397.78 88.86 397.84 88.37
  Q 398.21 85.21 397.76 82.08
  C 397.43 79.81 397.94 77.87 397.94 75.66
  A 0.58 0.57 -2.7 0 0 397.31 75.09
  Q 385.41 76.19 373.84 76.18
  Q 372.86 76.18 372.86 75.20"
/>
<path stroke="#808080" vector-effect="non-scaling-stroke" d="
  M 260.65 101.24
  C 269.62 101.51 278.02 100.38 284.95 94.34
  C 289.94 90.00 292.41 81.71 292.53 75.42
  Q 292.72 66.15 291.61 56.07
  Q 290.57 46.62 288.95 42.33
  C 286.80 36.67 280.21 31.24 273.54 30.42
  Q 265.42 29.43 258.46 29.76
  C 252.29 30.06 246.32 29.45 240.07 29.64
  A 1.12 1.11 88.7 0 0 238.99 30.78
  Q 239.19 40.35 239.08 49.52
  Q 238.81 71.52 239.01 93.01
  Q 239.11 104.75 238.58 116.26
  Q 238.33 121.70 238.74 126.82
  C 239.07 131.07 237.86 134.63 238.86 138.97
  A 1.94 1.92 51.3 0 1 238.73 140.22
  Q 238.48 140.76 238.42 141.35
  Q 238.35 142.01 239.01 141.99
  Q 246.74 141.79 254.49 142.36
  Q 256.90 142.53 259.36 142.31
  A 0.60 0.60 0.0 0 0 259.91 141.75
  Q 260.27 135.46 259.46 129.24
  C 259.20 127.21 259.88 125.37 259.56 123.43
  Q 259.20 121.24 259.31 119.08
  Q 259.76 110.50 260.01 101.85
  Q 260.02 101.22 260.65 101.24"
/>
<path stroke="#808080" vector-effect="non-scaling-stroke" d="
  M 457.03 109.19
  Q 456.25 109.04 456.94 108.65
  C 457.74 108.20 457.76 107.15 457.38 106.42
  Q 455.12 102.13 454.03 97.63
  A 1.54 1.53 63.2 0 1 454.53 96.10
  C 456.42 94.50 458.24 92.94 459.53 90.76
  Q 462.70 85.42 463.98 79.53
  C 464.46 77.35 464.06 75.22 464.20 73.01
  Q 464.35 70.61 464.12 68.35
  Q 463.54 62.75 463.49 55.75
  Q 463.44 48.93 459.42 40.41
  C 458.10 37.61 455.57 35.89 453.38 33.82
  Q 451.16 31.72 448.15 31.10
  Q 439.44 29.32 430.62 29.75
  C 423.90 30.08 417.50 29.27 410.81 29.78
  A 0.74 0.73 -1.3 0 0 410.13 30.49
  Q 409.88 38.80 410.55 47.19
  Q 410.65 48.44 410.51 49.60
  Q 410.35 50.90 410.33 52.14
  C 409.93 71.84 410.34 93.00 409.98 113.50
  Q 409.76 126.05 409.98 141.71
  A 0.35 0.34 -1.6 0 0 410.35 142.05
  Q 417.64 141.72 425.54 142.35
  Q 427.94 142.54 430.27 142.35
  Q 431.38 142.26 431.35 141.14
  Q 431.09 133.39 430.85 125.55
  C 430.62 118.13 431.03 110.63 431.20 103.27
  Q 431.31 98.28 433.36 102.84
  C 434.50 105.35 435.06 108.24 436.12 110.80
  C 437.21 113.42 438.42 115.90 439.10 118.68
  Q 440.41 124.05 442.50 128.84
  C 444.20 132.74 445.31 136.98 446.17 141.15
  A 1.10 1.10 0.0 0 0 447.25 142.03
  L 468.24 141.98
  A 0.49 0.48 86.8 0 0 468.72 141.44
  Q 468.51 139.65 467.85 137.81
  Q 462.82 123.75 458.29 110.08
  Q 458.17 109.73 457.86 109.53
  Q 457.48 109.28 457.03 109.19"
/>
<path stroke="#808080" vector-effect="non-scaling-stroke" d="
  M 197.09 93.84
  Q 195.52 99.16 194.64 104.83
  A 0.81 0.81 0.0 0 0 195.68 105.72
  Q 199.11 104.64 202.38 104.60
  C 204.30 104.57 205.91 103.56 207.83 103.69
  Q 209.30 103.79 209.04 102.33
  Q 205.51 82.60 203.54 64.98
  Q 203.42 63.85 202.16 63.61
  Q 201.68 63.52 201.57 63.98
  Q 200.30 69.20 200.11 73.47
  C 199.87 79.09 198.53 84.77 197.36 90.36
  Q 197.18 91.24 197.26 92.12
  Q 197.34 93.01 197.09 93.84"
/>
<path stroke="#808080" vector-effect="non-scaling-stroke" d="
  M 258.71 51.42
  Q 259.95 63.25 259.33 77.08
  Q 259.24 79.18 259.98 81.02
  Q 260.17 81.51 260.69 81.54
  Q 264.67 81.83 269.03 80.93
  Q 272.80 80.16 272.94 76.55
  Q 273.40 64.64 272.88 53.15
  Q 272.83 52.07 272.60 51.00
  Q 272.50 50.51 272.14 50.15
  L 269.63 47.70
  Q 269.21 47.29 268.62 47.22
  L 258.74 45.92
  A 0.83 0.83 0.0 0 0 257.83 46.97
  Q 258.48 49.26 258.71 51.42"
/>
<path stroke="#808080" vector-effect="non-scaling-stroke" d="
  M 429.78 50.64
  Q 431.50 62.88 430.73 77.22
  Q 430.64 78.91 431.16 80.75
  Q 431.30 81.23 431.79 81.32
  Q 437.48 82.32 443.01 80.29
  Q 443.52 80.11 443.67 79.59
  Q 444.58 76.30 444.50 75.24
  Q 444.16 70.34 444.53 64.11
  Q 444.77 60.10 444.31 52.63
  C 444.11 49.35 442.46 49.50 440.76 47.57
  A 1.51 1.51 0.0 0 0 439.81 47.07
  L 430.07 45.92
  A 1.00 1.00 0.0 0 0 429.00 47.20
  Q 429.54 48.95 429.78 50.64"
/>
</g>
<path fill="#ffffff" d="
  M 500.00 0.00
  L 500.00 172.00
  L 0.00 172.00
  L 0.00 0.00
  L 500.00 0.00
  Z
  M 88.64 97.92
  C 88.09 99.64 86.54 100.11 85.00 99.23
  Q 84.35 98.85 84.22 99.60
  Q 82.94 107.41 83.27 112.48
  C 83.57 117.03 82.84 121.13 79.04 123.77
  C 76.01 125.87 70.50 125.60 68.67 121.67
  Q 67.07 118.24 67.16 114.86
  Q 67.28 110.45 67.22 105.42
  Q 67.11 96.80 67.90 88.72
  C 68.51 82.45 68.29 76.15 68.59 69.93
  Q 68.87 64.16 67.64 59.11
  Q 67.03 56.63 67.44 54.70
  C 67.98 52.13 68.81 47.51 71.61 46.62
  C 75.43 45.41 80.93 46.32 81.40 51.39
  Q 81.56 53.07 82.29 54.65
  C 82.95 56.04 82.21 58.24 82.39 59.86
  Q 82.90 64.25 82.95 68.78
  Q 82.96 69.37 83.54 69.38
  C 86.99 69.46 90.97 69.03 94.35 69.89
  Q 94.85 70.02 95.32 69.81
  L 97.08 69.04
  Q 97.79 68.73 98.52 69.00
  L 100.15 69.62
  Q 100.77 69.85 100.91 69.20
  Q 102.16 63.26 101.77 59.41
  Q 101.24 54.24 100.59 49.14
  C 100.12 45.45 99.48 41.89 97.17 38.88
  C 94.32 35.16 92.80 32.09 88.04 30.39
  Q 84.47 29.11 80.27 27.71
  Q 77.92 26.93 74.82 27.29
  Q 67.15 28.18 62.24 29.81
  Q 51.87 33.26 48.73 44.44
  Q 45.87 54.67 46.11 63.76
  C 46.56 80.21 46.75 93.91 46.28 106.62
  Q 45.97 114.85 47.89 123.71
  Q 49.36 130.46 53.01 134.58
  Q 57.97 140.19 63.54 141.77
  C 68.26 143.10 73.35 143.04 78.28 142.83
  Q 84.47 142.56 88.58 140.11
  C 93.81 136.97 98.19 132.20 99.58 126.31
  Q 102.10 115.59 100.33 107.48
  C 99.77 104.94 100.25 102.45 99.81 99.83
  A 1.69 1.68 81.9 0 0 97.96 98.44
  Q 93.67 98.93 89.57 97.46
  Q 88.87 97.21 88.64 97.92
  Z
  M 128.26 60.49
  L 129.42 59.73
  Q 129.92 59.41 129.92 58.82
  L 130.06 29.56
  A 0.75 0.75 0.0 0 0 129.27 28.81
  Q 120.12 29.30 111.39 28.40
  Q 109.06 28.16 109.05 30.56
  Q 108.89 67.74 109.18 101.94
  Q 109.25 111.33 109.69 122.49
  Q 109.85 126.77 109.57 131.57
  C 109.42 134.16 109.99 136.65 109.61 139.14
  A 1.87 1.87 0.0 0 0 111.62 141.29
  Q 120.38 140.51 128.44 140.65
  A 0.42 0.42 0.0 0 0 128.87 140.24
  L 129.01 94.87
  A 0.67 0.67 0.0 0 1 129.70 94.20
  L 142.88 94.45
  Q 143.38 94.46 143.80 94.19
  Q 144.09 94.00 144.30 93.71
  Q 144.82 92.97 145.37 93.69
  C 146.00 94.54 146.97 95.33 147.07 96.44
  Q 147.35 99.71 146.49 102.26
  Q 146.29 102.87 146.52 103.47
  Q 147.03 104.84 146.68 106.11
  C 145.92 108.80 146.54 111.90 146.73 114.67
  Q 146.94 117.85 146.60 120.63
  C 145.78 127.17 146.00 134.10 146.11 140.50
  Q 146.12 141.14 146.75 141.21
  Q 155.95 142.18 165.51 141.97
  A 0.71 0.71 0.0 0 0 166.20 141.26
  Q 166.13 126.20 166.15 110.25
  Q 166.15 105.60 166.59 100.30
  Q 166.73 98.66 166.55 97.20
  C 166.23 94.62 166.82 92.02 166.83 89.42
  C 166.84 86.56 166.91 83.80 166.56 80.95
  C 166.26 78.45 165.49 71.92 166.90 69.68
  Q 167.20 69.20 166.94 68.70
  C 166.72 68.27 166.58 67.64 166.64 67.16
  Q 167.05 63.67 166.56 60.56
  C 165.94 56.68 166.38 52.94 166.16 49.08
  Q 166.11 48.23 166.45 47.48
  C 167.01 46.27 166.14 44.82 166.13 43.52
  Q 166.06 37.13 166.38 30.12
  A 1.11 1.10 89.1 0 0 165.20 28.97
  Q 156.22 29.61 147.39 28.81
  Q 146.02 28.69 146.02 30.07
  Q 146.00 35.96 145.30 40.79
  C 145.11 42.12 145.94 43.14 145.54 44.56
  C 144.31 48.94 146.17 52.09 146.17 56.20
  Q 146.18 63.32 145.30 69.80
  C 145.05 71.70 145.53 73.05 146.00 74.80
  A 0.65 0.64 79.5 0 1 145.44 75.62
  Q 138.13 76.36 130.98 75.43
  A 1.10 1.10 0.0 0 1 130.02 74.35
  L 129.92 63.33
  Q 129.91 62.83 129.61 62.42
  Q 129.11 61.75 128.31 61.37
  A 0.51 0.51 0.0 0 1 128.26 60.49
  Z
  M 231.94 128.30
  Q 233.04 126.41 231.67 124.84
  A 1.45 1.41 26.6 0 1 231.32 123.83
  C 231.49 120.13 230.45 116.68 230.06 112.98
  Q 229.12 104.08 227.78 94.95
  C 227.45 92.72 226.57 90.79 226.39 88.55
  Q 226.21 86.38 225.61 84.11
  Q 225.05 82.00 224.84 79.07
  Q 223.92 66.58 221.50 54.77
  Q 219.97 47.29 219.32 42.38
  Q 218.47 35.92 217.77 29.65
  A 1.01 1.00 -13.3 0 0 216.42 28.82
  Q 213.20 30.02 210.36 29.50
  C 206.93 28.88 203.45 29.23 200.01 29.14
  C 198.64 29.10 197.54 29.78 196.25 30.07
  Q 195.75 30.18 195.30 29.95
  Q 193.02 28.79 191.10 29.04
  A 2.14 2.13 87.6 0 0 189.23 31.08
  C 188.87 40.30 186.30 49.08 185.03 57.50
  Q 184.00 64.34 182.53 71.70
  Q 182.07 74.01 181.70 76.30
  Q 180.16 85.80 178.64 95.87
  C 177.50 103.46 175.29 111.31 174.48 119.25
  Q 173.67 127.07 172.64 135.57
  Q 172.58 136.06 172.30 136.48
  Q 170.90 138.62 171.16 141.44
  A 0.64 0.64 0.0 0 0 171.82 142.03
  Q 180.33 141.75 187.37 142.51
  Q 189.70 142.76 191.25 141.25
  Q 191.64 140.87 191.62 140.33
  Q 191.45 136.21 192.68 132.20
  C 193.66 129.04 193.74 125.84 194.05 122.57
  Q 194.11 121.94 194.74 121.94
  L 210.97 122.05
  Q 212.56 122.06 212.75 123.64
  C 213.25 127.70 213.64 131.80 214.61 135.76
  Q 215.22 138.21 215.04 140.58
  Q 214.97 141.52 215.91 141.52
  Q 220.77 141.48 225.65 140.75
  C 228.24 140.37 230.69 140.94 233.27 140.61
  Q 233.96 140.52 233.93 139.84
  L 233.66 132.10
  Q 233.63 131.39 233.21 130.83
  L 231.99 129.21
  Q 231.66 128.78 231.94 128.30
  Z
  M 309.90 47.21
  Q 310.74 47.23 310.76 48.07
  Q 310.94 56.00 310.47 63.99
  Q 310.38 65.54 310.74 67.21
  C 311.31 69.84 310.73 72.38 310.44 74.99
  Q 310.17 77.32 310.19 79.55
  Q 310.28 89.26 310.23 99.01
  C 310.22 101.40 310.65 103.75 310.44 106.04
  Q 310.23 108.26 310.21 110.40
  Q 310.03 125.18 310.21 141.26
  Q 310.21 142.00 310.95 142.00
  L 329.24 142.00
  Q 329.83 142.00 329.88 141.41
  Q 330.90 128.93 330.98 108.50
  Q 331.06 89.28 330.95 62.61
  Q 330.93 59.64 331.08 56.70
  Q 331.24 53.43 330.65 50.68
  A 1.55 1.55 0.0 0 1 332.32 48.81
  Q 340.93 49.68 348.81 48.80
  Q 349.21 48.76 349.25 48.36
  Q 349.87 41.91 349.10 35.74
  C 348.85 33.76 349.82 32.36 349.56 30.40
  A 1.35 1.35 0.0 0 0 348.26 29.23
  Q 335.78 28.84 323.86 29.51
  Q 315.94 29.95 306.81 29.92
  C 302.70 29.91 298.84 30.93 294.75 30.97
  Q 294.11 30.98 294.07 31.63
  Q 293.95 33.78 293.68 36.07
  C 293.26 39.53 294.41 42.61 293.66 46.16
  A 0.70 0.70 0.0 0 0 294.23 47.00
  Q 296.74 47.38 299.26 47.28
  Q 304.85 47.06 309.90 47.21
  Z
  M 372.86 75.20
  C 372.85 68.40 372.46 61.24 373.50 54.49
  Q 374.00 51.20 373.34 47.77
  A 1.37 1.37 0.0 0 1 374.80 46.15
  C 377.75 46.39 380.73 46.84 383.72 46.84
  Q 393.91 46.84 403.23 46.82
  A 0.79 0.78 -1.0 0 0 404.02 46.01
  L 403.45 30.66
  A 1.40 1.40 0.0 0 0 402.09 29.30
  Q 378.84 28.64 354.77 29.24
  A 0.77 0.77 0.0 0 0 354.02 30.01
  L 353.89 140.91
  A 0.73 0.73 0.0 0 0 354.70 141.64
  Q 358.25 141.28 361.72 142.56
  A 2.17 2.16 -45.2 0 0 363.24 142.55
  C 367.16 141.05 370.87 141.99 374.97 141.99
  Q 390.25 141.97 404.45 142.00
  A 0.29 0.29 0.0 0 0 404.74 141.73
  Q 404.99 136.72 404.36 132.86
  C 403.76 129.24 405.11 126.00 404.58 122.31
  Q 404.53 121.96 404.18 121.96
  L 375.73 121.95
  Q 375.08 121.95 374.96 121.32
  Q 374.38 118.36 374.82 115.19
  C 375.20 112.44 373.89 110.17 374.34 107.49
  C 375.10 103.00 373.86 98.51 374.86 93.79
  Q 374.98 93.20 375.59 93.21
  Q 378.10 93.26 380.71 94.17
  Q 383.98 95.31 386.14 93.57
  Q 386.96 92.91 387.94 93.31
  Q 389.89 94.13 391.11 92.36
  Q 392.29 90.65 392.96 92.61
  Q 393.11 93.05 393.45 93.36
  Q 393.92 93.81 394.56 93.66
  Q 396.32 93.24 397.81 94.30
  A 0.56 0.55 -65.7 0 0 398.67 93.97
  Q 399.26 91.37 398.03 89.28
  Q 397.78 88.86 397.84 88.37
  Q 398.21 85.21 397.76 82.08
  C 397.43 79.81 397.94 77.87 397.94 75.66
  A 0.58 0.57 -2.7 0 0 397.31 75.09
  Q 385.41 76.19 373.84 76.18
  Q 372.86 76.18 372.86 75.20
  Z
  M 260.65 101.24
  C 269.62 101.51 278.02 100.38 284.95 94.34
  C 289.94 90.00 292.41 81.71 292.53 75.42
  Q 292.72 66.15 291.61 56.07
  Q 290.57 46.62 288.95 42.33
  C 286.80 36.67 280.21 31.24 273.54 30.42
  Q 265.42 29.43 258.46 29.76
  C 252.29 30.06 246.32 29.45 240.07 29.64
  A 1.12 1.11 88.7 0 0 238.99 30.78
  Q 239.19 40.35 239.08 49.52
  Q 238.81 71.52 239.01 93.01
  Q 239.11 104.75 238.58 116.26
  Q 238.33 121.70 238.74 126.82
  C 239.07 131.07 237.86 134.63 238.86 138.97
  A 1.94 1.92 51.3 0 1 238.73 140.22
  Q 238.48 140.76 238.42 141.35
  Q 238.35 142.01 239.01 141.99
  Q 246.74 141.79 254.49 142.36
  Q 256.90 142.53 259.36 142.31
  A 0.60 0.60 0.0 0 0 259.91 141.75
  Q 260.27 135.46 259.46 129.24
  C 259.20 127.21 259.88 125.37 259.56 123.43
  Q 259.20 121.24 259.31 119.08
  Q 259.76 110.50 260.01 101.85
  Q 260.02 101.22 260.65 101.24
  Z
  M 457.03 109.19
  Q 456.25 109.04 456.94 108.65
  C 457.74 108.20 457.76 107.15 457.38 106.42
  Q 455.12 102.13 454.03 97.63
  A 1.54 1.53 63.2 0 1 454.53 96.10
  C 456.42 94.50 458.24 92.94 459.53 90.76
  Q 462.70 85.42 463.98 79.53
  C 464.46 77.35 464.06 75.22 464.20 73.01
  Q 464.35 70.61 464.12 68.35
  Q 463.54 62.75 463.49 55.75
  Q 463.44 48.93 459.42 40.41
  C 458.10 37.61 455.57 35.89 453.38 33.82
  Q 451.16 31.72 448.15 31.10
  Q 439.44 29.32 430.62 29.75
  C 423.90 30.08 417.50 29.27 410.81 29.78
  A 0.74 0.73 -1.3 0 0 410.13 30.49
  Q 409.88 38.80 410.55 47.19
  Q 410.65 48.44 410.51 49.60
  Q 410.35 50.90 410.33 52.14
  C 409.93 71.84 410.34 93.00 409.98 113.50
  Q 409.76 126.05 409.98 141.71
  A 0.35 0.34 -1.6 0 0 410.35 142.05
  Q 417.64 141.72 425.54 142.35
  Q 427.94 142.54 430.27 142.35
  Q 431.38 142.26 431.35 141.14
  Q 431.09 133.39 430.85 125.55
  C 430.62 118.13 431.03 110.63 431.20 103.27
  Q 431.31 98.28 433.36 102.84
  C 434.50 105.35 435.06 108.24 436.12 110.80
  C 437.21 113.42 438.42 115.90 439.10 118.68
  Q 440.41 124.05 442.50 128.84
  C 444.20 132.74 445.31 136.98 446.17 141.15
  A 1.10 1.10 0.0 0 0 447.25 142.03
  L 468.24 141.98
  A 0.49 0.48 86.8 0 0 468.72 141.44
  Q 468.51 139.65 467.85 137.81
  Q 462.82 123.75 458.29 110.08
  Q 458.17 109.73 457.86 109.53
  Q 457.48 109.28 457.03 109.19
  Z"
/>
<path fill="#000000" d="
  M 85.00 99.23
  C 86.54 100.11 88.09 99.64 88.64 97.92
  Q 88.87 97.21 89.57 97.46
  Q 93.67 98.93 97.96 98.44
  A 1.69 1.68 81.9 0 1 99.81 99.83
  C 100.25 102.45 99.77 104.94 100.33 107.48
  Q 102.10 115.59 99.58 126.31
  C 98.19 132.20 93.81 136.97 88.58 140.11
  Q 84.47 142.56 78.28 142.83
  C 73.35 143.04 68.26 143.10 63.54 141.77
  Q 57.97 140.19 53.01 134.58
  Q 49.36 130.46 47.89 123.71
  Q 45.97 114.85 46.28 106.62
  C 46.75 93.91 46.56 80.21 46.11 63.76
  Q 45.87 54.67 48.73 44.44
  Q 51.87 33.26 62.24 29.81
  Q 67.15 28.18 74.82 27.29
  Q 77.92 26.93 80.27 27.71
  Q 84.47 29.11 88.04 30.39
  C 92.80 32.09 94.32 35.16 97.17 38.88
  C 99.48 41.89 100.12 45.45 100.59 49.14
  Q 101.24 54.24 101.77 59.41
  Q 102.16 63.26 100.91 69.20
  Q 100.77 69.85 100.15 69.62
  L 98.52 69.00
  Q 97.79 68.73 97.08 69.04
  L 95.32 69.81
  Q 94.85 70.02 94.35 69.89
  C 90.97 69.03 86.99 69.46 83.54 69.38
  Q 82.96 69.37 82.95 68.78
  Q 82.90 64.25 82.39 59.86
  C 82.21 58.24 82.95 56.04 82.29 54.65
  Q 81.56 53.07 81.40 51.39
  C 80.93 46.32 75.43 45.41 71.61 46.62
  C 68.81 47.51 67.98 52.13 67.44 54.70
  Q 67.03 56.63 67.64 59.11
  Q 68.87 64.16 68.59 69.93
  C 68.29 76.15 68.51 82.45 67.90 88.72
  Q 67.11 96.80 67.22 105.42
  Q 67.28 110.45 67.16 114.86
  Q 67.07 118.24 68.67 121.67
  C 70.50 125.60 76.01 125.87 79.04 123.77
  C 82.84 121.13 83.57 117.03 83.27 112.48
  Q 82.94 107.41 84.22 99.60
  Q 84.35 98.85 85.00 99.23
  Z"
/>
<path fill="#000000" d="
  M 128.31 61.37
  Q 129.11 61.75 129.61 62.42
  Q 129.91 62.83 129.92 63.33
  L 130.02 74.35
  A 1.10 1.10 0.0 0 0 130.98 75.43
  Q 138.13 76.36 145.44 75.62
  A 0.65 0.64 79.5 0 0 146.00 74.80
  C 145.53 73.05 145.05 71.70 145.30 69.80
  Q 146.18 63.32 146.17 56.20
  C 146.17 52.09 144.31 48.94 145.54 44.56
  C 145.94 43.14 145.11 42.12 145.30 40.79
  Q 146.00 35.96 146.02 30.07
  Q 146.02 28.69 147.39 28.81
  Q 156.22 29.61 165.20 28.97
  A 1.11 1.10 89.1 0 1 166.38 30.12
  Q 166.06 37.13 166.13 43.52
  C 166.14 44.82 167.01 46.27 166.45 47.48
  Q 166.11 48.23 166.16 49.08
  C 166.38 52.94 165.94 56.68 166.56 60.56
  Q 167.05 63.67 166.64 67.16
  C 166.58 67.64 166.72 68.27 166.94 68.70
  Q 167.20 69.20 166.90 69.68
  C 165.49 71.92 166.26 78.45 166.56 80.95
  C 166.91 83.80 166.84 86.56 166.83 89.42
  C 166.82 92.02 166.23 94.62 166.55 97.20
  Q 166.73 98.66 166.59 100.30
  Q 166.15 105.60 166.15 110.25
  Q 166.13 126.20 166.20 141.26
  A 0.71 0.71 0.0 0 1 165.51 141.97
  Q 155.95 142.18 146.75 141.21
  Q 146.12 141.14 146.11 140.50
  C 146.00 134.10 145.78 127.17 146.60 120.63
  Q 146.94 117.85 146.73 114.67
  C 146.54 111.90 145.92 108.80 146.68 106.11
  Q 147.03 104.84 146.52 103.47
  Q 146.29 102.87 146.49 102.26
  Q 147.35 99.71 147.07 96.44
  C 146.97 95.33 146.00 94.54 145.37 93.69
  Q 144.82 92.97 144.30 93.71
  Q 144.09 94.00 143.80 94.19
  Q 143.38 94.46 142.88 94.45
  L 129.70 94.20
  A 0.67 0.67 0.0 0 0 129.01 94.87
  L 128.87 140.24
  A 0.42 0.42 0.0 0 1 128.44 140.65
  Q 120.38 140.51 111.62 141.29
  A 1.87 1.87 0.0 0 1 109.61 139.14
  C 109.99 136.65 109.42 134.16 109.57 131.57
  Q 109.85 126.77 109.69 122.49
  Q 109.25 111.33 109.18 101.94
  Q 108.89 67.74 109.05 30.56
  Q 109.06 28.16 111.39 28.40
  Q 120.12 29.30 129.27 28.81
  A 0.75 0.75 0.0 0 1 130.06 29.56
  L 129.92 58.82
  Q 129.92 59.41 129.42 59.73
  L 128.26 60.49
  A 0.51 0.51 0.0 0 0 128.31 61.37
  Z"
/>
<path fill="#000000" d="
  M 231.99 129.21
  L 233.21 130.83
  Q 233.63 131.39 233.66 132.10
  L 233.93 139.84
  Q 233.96 140.52 233.27 140.61
  C 230.69 140.94 228.24 140.37 225.65 140.75
  Q 220.77 141.48 215.91 141.52
  Q 214.97 141.52 215.04 140.58
  Q 215.22 138.21 214.61 135.76
  C 213.64 131.80 213.25 127.70 212.75 123.64
  Q 212.56 122.06 210.97 122.05
  L 194.74 121.94
  Q 194.11 121.94 194.05 122.57
  C 193.74 125.84 193.66 129.04 192.68 132.20
  Q 191.45 136.21 191.62 140.33
  Q 191.64 140.87 191.25 141.25
  Q 189.70 142.76 187.37 142.51
  Q 180.33 141.75 171.82 142.03
  A 0.64 0.64 0.0 0 1 171.16 141.44
  Q 170.90 138.62 172.30 136.48
  Q 172.58 136.06 172.64 135.57
  Q 173.67 127.07 174.48 119.25
  C 175.29 111.31 177.50 103.46 178.64 95.87
  Q 180.16 85.80 181.70 76.30
  Q 182.07 74.01 182.53 71.70
  Q 184.00 64.34 185.03 57.50
  C 186.30 49.08 188.87 40.30 189.23 31.08
  A 2.14 2.13 87.6 0 1 191.10 29.04
  Q 193.02 28.79 195.30 29.95
  Q 195.75 30.18 196.25 30.07
  C 197.54 29.78 198.64 29.10 200.01 29.14
  C 203.45 29.23 206.93 28.88 210.36 29.50
  Q 213.20 30.02 216.42 28.82
  A 1.01 1.00 -13.3 0 1 217.77 29.65
  Q 218.47 35.92 219.32 42.38
  Q 219.97 47.29 221.50 54.77
  Q 223.92 66.58 224.84 79.07
  Q 225.05 82.00 225.61 84.11
  Q 226.21 86.38 226.39 88.55
  C 226.57 90.79 227.45 92.72 227.78 94.95
  Q 229.12 104.08 230.06 112.98
  C 230.45 116.68 231.49 120.13 231.32 123.83
  A 1.45 1.41 26.6 0 0 231.67 124.84
  Q 233.04 126.41 231.94 128.30
  Q 231.66 128.78 231.99 129.21
  Z
  M 197.09 93.84
  Q 195.52 99.16 194.64 104.83
  A 0.81 0.81 0.0 0 0 195.68 105.72
  Q 199.11 104.64 202.38 104.60
  C 204.30 104.57 205.91 103.56 207.83 103.69
  Q 209.30 103.79 209.04 102.33
  Q 205.51 82.60 203.54 64.98
  Q 203.42 63.85 202.16 63.61
  Q 201.68 63.52 201.57 63.98
  Q 200.30 69.20 200.11 73.47
  C 199.87 79.09 198.53 84.77 197.36 90.36
  Q 197.18 91.24 197.26 92.12
  Q 197.34 93.01 197.09 93.84
  Z"
/>
<path fill="#000000" d="
  M 309.90 47.21
  Q 304.85 47.06 299.26 47.28
  Q 296.74 47.38 294.23 47.00
  A 0.70 0.70 0.0 0 1 293.66 46.16
  C 294.41 42.61 293.26 39.53 293.68 36.07
  Q 293.95 33.78 294.07 31.63
  Q 294.11 30.98 294.75 30.97
  C 298.84 30.93 302.70 29.91 306.81 29.92
  Q 315.94 29.95 323.86 29.51
  Q 335.78 28.84 348.26 29.23
  A 1.35 1.35 0.0 0 1 349.56 30.40
  C 349.82 32.36 348.85 33.76 349.10 35.74
  Q 349.87 41.91 349.25 48.36
  Q 349.21 48.76 348.81 48.80
  Q 340.93 49.68 332.32 48.81
  A 1.55 1.55 0.0 0 0 330.65 50.68
  Q 331.24 53.43 331.08 56.70
  Q 330.93 59.64 330.95 62.61
  Q 331.06 89.28 330.98 108.50
  Q 330.90 128.93 329.88 141.41
  Q 329.83 142.00 329.24 142.00
  L 310.95 142.00
  Q 310.21 142.00 310.21 141.26
  Q 310.03 125.18 310.21 110.40
  Q 310.23 108.26 310.44 106.04
  C 310.65 103.75 310.22 101.40 310.23 99.01
  Q 310.28 89.26 310.19 79.55
  Q 310.17 77.32 310.44 74.99
  C 310.73 72.38 311.31 69.84 310.74 67.21
  Q 310.38 65.54 310.47 63.99
  Q 310.94 56.00 310.76 48.07
  Q 310.74 47.23 309.90 47.21
  Z"
/>
<path fill="#000000" d="
  M 372.86 75.20
  Q 372.86 76.18 373.84 76.18
  Q 385.41 76.19 397.31 75.09
  A 0.58 0.57 -2.7 0 1 397.94 75.66
  C 397.94 77.87 397.43 79.81 397.76 82.08
  Q 398.21 85.21 397.84 88.37
  Q 397.78 88.86 398.03 89.28
  Q 399.26 91.37 398.67 93.97
  A 0.56 0.55 -65.7 0 1 397.81 94.30
  Q 396.32 93.24 394.56 93.66
  Q 393.92 93.81 393.45 93.36
  Q 393.11 93.05 392.96 92.61
  Q 392.29 90.65 391.11 92.36
  Q 389.89 94.13 387.94 93.31
  Q 386.96 92.91 386.14 93.57
  Q 383.98 95.31 380.71 94.17
  Q 378.10 93.26 375.59 93.21
  Q 374.98 93.20 374.86 93.79
  C 373.86 98.51 375.10 103.00 374.34 107.49
  C 373.89 110.17 375.20 112.44 374.82 115.19
  Q 374.38 118.36 374.96 121.32
  Q 375.08 121.95 375.73 121.95
  L 404.18 121.96
  Q 404.53 121.96 404.58 122.31
  C 405.11 126.00 403.76 129.24 404.36 132.86
  Q 404.99 136.72 404.74 141.73
  A 0.29 0.29 0.0 0 1 404.45 142.00
  Q 390.25 141.97 374.97 141.99
  C 370.87 141.99 367.16 141.05 363.24 142.55
  A 2.17 2.16 -45.2 0 1 361.72 142.56
  Q 358.25 141.28 354.70 141.64
  A 0.73 0.73 0.0 0 1 353.89 140.91
  L 354.02 30.01
  A 0.77 0.77 0.0 0 1 354.77 29.24
  Q 378.84 28.64 402.09 29.30
  A 1.40 1.40 0.0 0 1 403.45 30.66
  L 404.02 46.01
  A 0.79 0.78 -1.0 0 1 403.23 46.82
  Q 393.91 46.84 383.72 46.84
  C 380.73 46.84 377.75 46.39 374.80 46.15
  A 1.37 1.37 0.0 0 0 373.34 47.77
  Q 374.00 51.20 373.50 54.49
  C 372.46 61.24 372.85 68.40 372.86 75.20
  Z"
/>
<path fill="#000000" d="
  M 260.01 101.85
  Q 259.76 110.50 259.31 119.08
  Q 259.20 121.24 259.56 123.43
  C 259.88 125.37 259.20 127.21 259.46 129.24
  Q 260.27 135.46 259.91 141.75
  A 0.60 0.60 0.0 0 1 259.36 142.31
  Q 256.90 142.53 254.49 142.36
  Q 246.74 141.79 239.01 141.99
  Q 238.35 142.01 238.42 141.35
  Q 238.48 140.76 238.73 140.22
  A 1.94 1.92 51.3 0 0 238.86 138.97
  C 237.86 134.63 239.07 131.07 238.74 126.82
  Q 238.33 121.70 238.58 116.26
  Q 239.11 104.75 239.01 93.01
  Q 238.81 71.52 239.08 49.52
  Q 239.19 40.35 238.99 30.78
  A 1.12 1.11 88.7 0 1 240.07 29.64
  C 246.32 29.45 252.29 30.06 258.46 29.76
  Q 265.42 29.43 273.54 30.42
  C 280.21 31.24 286.80 36.67 288.95 42.33
  Q 290.57 46.62 291.61 56.07
  Q 292.72 66.15 292.53 75.42
  C 292.41 81.71 289.94 90.00 284.95 94.34
  C 278.02 100.38 269.62 101.51 260.65 101.24
  Q 260.02 101.22 260.01 101.85
  Z
  M 258.71 51.42
  Q 259.95 63.25 259.33 77.08
  Q 259.24 79.18 259.98 81.02
  Q 260.17 81.51 260.69 81.54
  Q 264.67 81.83 269.03 80.93
  Q 272.80 80.16 272.94 76.55
  Q 273.40 64.64 272.88 53.15
  Q 272.83 52.07 272.60 51.00
  Q 272.50 50.51 272.14 50.15
  L 269.63 47.70
  Q 269.21 47.29 268.62 47.22
  L 258.74 45.92
  A 0.83 0.83 0.0 0 0 257.83 46.97
  Q 258.48 49.26 258.71 51.42
  Z"
/>
<path fill="#000000" d="
  M 457.03 109.19
  Q 457.48 109.28 457.86 109.53
  Q 458.17 109.73 458.29 110.08
  Q 462.82 123.75 467.85 137.81
  Q 468.51 139.65 468.72 141.44
  A 0.49 0.48 86.8 0 1 468.24 141.98
  L 447.25 142.03
  A 1.10 1.10 0.0 0 1 446.17 141.15
  C 445.31 136.98 444.20 132.74 442.50 128.84
  Q 440.41 124.05 439.10 118.68
  C 438.42 115.90 437.21 113.42 436.12 110.80
  C 435.06 108.24 434.50 105.35 433.36 102.84
  Q 431.31 98.28 431.20 103.27
  C 431.03 110.63 430.62 118.13 430.85 125.55
  Q 431.09 133.39 431.35 141.14
  Q 431.38 142.26 430.27 142.35
  Q 427.94 142.54 425.54 142.35
  Q 417.64 141.72 410.35 142.05
  A 0.35 0.34 -1.6 0 1 409.98 141.71
  Q 409.76 126.05 409.98 113.50
  C 410.34 93.00 409.93 71.84 410.33 52.14
  Q 410.35 50.90 410.51 49.60
  Q 410.65 48.44 410.55 47.19
  Q 409.88 38.80 410.13 30.49
  A 0.74 0.73 -1.3 0 1 410.81 29.78
  C 417.50 29.27 423.90 30.08 430.62 29.75
  Q 439.44 29.32 448.15 31.10
  Q 451.16 31.72 453.38 33.82
  C 455.57 35.89 458.10 37.61 459.42 40.41
  Q 463.44 48.93 463.49 55.75
  Q 463.54 62.75 464.12 68.35
  Q 464.35 70.61 464.20 73.01
  C 464.06 75.22 464.46 77.35 463.98 79.53
  Q 462.70 85.42 459.53 90.76
  C 458.24 92.94 456.42 94.50 454.53 96.10
  A 1.54 1.53 63.2 0 0 454.03 97.63
  Q 455.12 102.13 457.38 106.42
  C 457.76 107.15 457.74 108.20 456.94 108.65
  Q 456.25 109.04 457.03 109.19
  Z
  M 429.78 50.64
  Q 431.50 62.88 430.73 77.22
  Q 430.64 78.91 431.16 80.75
  Q 431.30 81.23 431.79 81.32
  Q 437.48 82.32 443.01 80.29
  Q 443.52 80.11 443.67 79.59
  Q 444.58 76.30 444.50 75.24
  Q 444.16 70.34 444.53 64.11
  Q 444.77 60.10 444.31 52.63
  C 444.11 49.35 442.46 49.50 440.76 47.57
  A 1.51 1.51 0.0 0 0 439.81 47.07
  L 430.07 45.92
  A 1.00 1.00 0.0 0 0 429.00 47.20
  Q 429.54 48.95 429.78 50.64
  Z"
/>
<path fill="#ffffff" d="
  M 258.71 51.42
  Q 258.48 49.26 257.83 46.97
  A 0.83 0.83 0.0 0 1 258.74 45.92
  L 268.62 47.22
  Q 269.21 47.29 269.63 47.70
  L 272.14 50.15
  Q 272.50 50.51 272.60 51.00
  Q 272.83 52.07 272.88 53.15
  Q 273.40 64.64 272.94 76.55
  Q 272.80 80.16 269.03 80.93
  Q 264.67 81.83 260.69 81.54
  Q 260.17 81.51 259.98 81.02
  Q 259.24 79.18 259.33 77.08
  Q 259.95 63.25 258.71 51.42
  Z"
/>
<path fill="#ffffff" d="
  M 429.78 50.64
  Q 429.54 48.95 429.00 47.20
  A 1.00 1.00 0.0 0 1 430.07 45.92
  L 439.81 47.07
  A 1.51 1.51 0.0 0 1 440.76 47.57
  C 442.46 49.50 444.11 49.35 444.31 52.63
  Q 444.77 60.10 444.53 64.11
  Q 444.16 70.34 444.50 75.24
  Q 444.58 76.30 443.67 79.59
  Q 443.52 80.11 443.01 80.29
  Q 437.48 82.32 431.79 81.32
  Q 431.30 81.23 431.16 80.75
  Q 430.64 78.91 430.73 77.22
  Q 431.50 62.88 429.78 50.64
  Z"
/>
<path fill="#ffffff" d="
  M 197.09 93.84
  Q 197.34 93.01 197.26 92.12
  Q 197.18 91.24 197.36 90.36
  C 198.53 84.77 199.87 79.09 200.11 73.47
  Q 200.30 69.20 201.57 63.98
  Q 201.68 63.52 202.16 63.61
  Q 203.42 63.85 203.54 64.98
  Q 205.51 82.60 209.04 102.33
  Q 209.30 103.79 207.83 103.69
  C 205.91 103.56 204.30 104.57 202.38 104.60
  Q 199.11 104.64 195.68 105.72
  A 0.81 0.81 0.0 0 1 194.64 104.83
  Q 195.52 99.16 197.09 93.84
  Z"
/>
</svg>
