<?xml version="1.0" encoding="UTF-8" standalone="no"?>
<!DOCTYPE svg PUBLIC "-//W3C//DTD SVG 1.1//EN" "http://www.w3.org/Graphics/SVG/1.1/DTD/svg11.dtd">
<svg xmlns="http://www.w3.org/2000/svg" version="1.1" viewBox="0.00 0.00 274.00 104.00">
<path fill="#000000" d="
  M 22.74 18.46
  C 19.19 18.17 18.76 21.53 18.13 24.11
  Q 17.80 25.49 18.12 26.88
  C 19.45 32.67 18.48 38.40 18.26 44.40
  Q 17.93 53.15 17.98 61.22
  C 17.99 63.09 18.27 67.57 20.12 68.68
  C 22.45 70.07 25.43 68.92 26.65 66.71
  Q 27.64 64.90 27.58 62.59
  Q 27.45 58.01 28.59 53.49
  A 1.56 1.55 85.7 0 1 29.49 52.44
  Q 33.18 50.89 37.97 52.12
  Q 38.51 52.26 38.56 52.82
  C 39.03 58.34 40.15 63.51 38.59 69.19
  Q 35.96 78.78 26.66 80.03
  C 23.43 80.46 19.12 80.47 16.07 79.73
  Q 8.59 77.92 6.01 70.19
  C 4.60 65.98 4.00 61.04 4.14 56.53
  Q 4.35 49.74 4.45 42.95
  Q 4.51 38.77 4.31 34.31
  Q 4.12 30.09 4.40 25.56
  C 4.57 22.78 5.50 20.54 5.90 17.87
  C 6.42 14.35 10.10 10.34 12.82 9.10
  Q 16.82 7.28 23.17 6.78
  Q 25.08 6.63 26.87 7.34
  C 29.03 8.19 31.58 8.53 33.37 10.06
  Q 37.50 13.60 38.58 18.07
  Q 40.12 24.50 39.44 33.14
  Q 39.39 33.75 38.77 33.74
  L 28.24 33.59
  A 0.65 0.65 0.0 0 1 27.60 32.92
  C 27.72 29.15 28.31 18.93 22.74 18.46
  Z"
/>
<path fill="#000000" d="
  M 66.56 49.41
  C 64.38 50.54 60.89 49.29 58.53 49.01
  A 1.07 1.07 0.0 0 0 57.34 50.07
  L 57.30 78.39
  Q 57.30 78.84 56.85 78.86
  L 45.75 79.32
  A 1.09 1.09 0.0 0 1 44.61 78.23
  L 44.50 8.20
  A 1.00 0.99 5.3 0 1 45.68 7.23
  Q 50.83 8.21 56.59 7.53
  A 0.94 0.93 -3.3 0 1 57.64 8.46
  L 57.45 35.66
  Q 57.43 37.93 59.70 37.94
  L 65.52 37.95
  Q 67.53 37.96 67.48 35.95
  C 67.37 31.56 67.83 27.40 67.57 22.72
  Q 67.20 15.95 67.67 8.47
  A 0.95 0.94 4.9 0 1 68.72 7.59
  Q 73.84 8.19 79.88 7.73
  A 0.85 0.85 0.0 0 1 80.80 8.59
  Q 80.78 14.87 80.85 21.81
  Q 80.88 25.81 81.22 29.26
  C 81.57 32.81 80.87 36.04 81.09 39.72
  Q 81.53 47.00 81.12 54.12
  C 80.73 61.09 80.90 67.83 80.84 74.66
  Q 80.81 77.14 80.39 79.37
  A 0.62 0.62 0.0 0 1 79.75 79.87
  L 68.44 79.27
  Q 67.64 79.23 67.66 78.43
  L 68.39 50.56
  A 1.26 1.25 -12.8 0 0 66.56 49.41
  Z"
/>
<path fill="#000000" d="
  M 110.00 67.81
  A 1.16 1.15 -4.4 0 0 108.87 66.85
  L 99.48 66.81
  A 1.02 1.01 -85.8 0 0 98.47 67.69
  L 96.90 79.15
  A 0.88 0.86 -88.6 0 1 96.14 79.89
  Q 94.31 80.11 92.30 79.89
  C 89.81 79.62 87.43 79.60 84.98 79.89
  A 1.08 1.08 0.0 0 1 83.86 78.42
  Q 85.05 75.45 85.20 72.70
  Q 85.60 65.63 86.75 60.22
  C 89.00 49.69 90.32 39.03 92.07 28.10
  C 93.12 21.47 94.85 14.99 95.52 8.36
  A 0.60 0.59 4.5 0 1 96.15 7.83
  Q 104.16 8.24 112.68 7.86
  Q 113.69 7.81 113.81 8.81
  C 114.93 17.73 116.63 26.55 117.77 35.30
  Q 118.68 42.35 119.81 49.01
  C 121.26 57.64 121.60 66.49 124.04 75.12
  Q 124.50 76.73 123.87 78.42
  Q 123.66 78.97 123.07 78.95
  Q 117.64 78.77 112.86 79.69
  Q 112.02 79.85 111.87 79.00
  L 110.00 67.81
  Z
  M 107.60 53.84
  Q 105.47 41.96 104.65 30.90
  Q 104.50 28.88 103.38 30.56
  Q 102.87 31.32 102.79 32.26
  Q 101.81 43.83 99.06 55.44
  A 0.96 0.95 -82.7 0 0 99.97 56.62
  Q 103.78 56.69 106.86 55.27
  A 1.32 1.32 0.0 0 0 107.60 53.84
  Z"
/>
<path fill="#000000" d="
  M 185.66 21.19
  Q 185.90 44.01 185.69 65.97
  C 185.65 70.51 185.24 74.90 184.84 79.45
  A 0.50 0.49 -84.2 0 1 184.30 79.90
  Q 178.50 79.30 172.84 79.92
  A 0.86 0.86 0.0 0 1 171.88 79.07
  Q 171.90 69.75 171.93 60.25
  C 171.94 58.53 172.24 56.90 172.19 55.26
  Q 171.96 48.09 171.89 40.56
  Q 171.87 38.20 172.43 36.11
  C 173.02 33.95 172.34 31.97 172.44 29.79
  Q 172.64 25.01 172.72 20.13
  A 0.99 0.98 89.7 0 0 171.71 19.12
  L 162.86 19.40
  A 1.05 1.05 0.0 0 1 161.78 18.36
  L 161.73 9.81
  A 0.76 0.75 88.0 0 1 162.43 9.05
  Q 178.22 7.97 196.20 7.79
  A 1.17 1.17 0.0 0 1 197.39 8.98
  C 197.38 10.23 197.01 11.46 197.18 12.74
  Q 197.64 16.35 197.13 19.75
  A 0.74 0.73 -85.0 0 1 196.40 20.37
  L 186.62 20.24
  A 0.94 0.94 0.0 0 0 185.66 21.19
  Z"
/>
<path fill="#000000" d="
  M 214.01 67.09
  L 231.37 66.90
  A 0.97 0.97 0.0 0 1 232.35 67.86
  L 232.41 79.00
  Q 232.41 79.62 231.80 79.62
  L 200.78 79.58
  Q 200.03 79.58 199.98 78.84
  Q 199.83 76.80 199.84 75.06
  Q 200.01 56.68 199.86 40.59
  C 199.81 34.75 200.45 29.17 200.24 23.31
  C 200.07 18.62 200.66 14.06 200.04 9.31
  A 1.24 1.23 -4.9 0 1 201.22 7.92
  Q 215.96 7.38 230.63 7.84
  A 0.83 0.82 87.0 0 1 231.41 8.55
  Q 232.13 13.50 232.06 18.08
  Q 232.05 19.20 230.93 19.23
  Q 222.33 19.48 213.46 18.66
  A 0.79 0.79 0.0 0 0 212.60 19.44
  L 212.37 36.53
  A 1.43 1.43 0.0 0 0 213.90 37.98
  L 227.25 37.03
  A 1.10 1.10 0.0 0 1 228.43 38.20
  Q 228.09 43.88 228.96 49.05
  A 0.58 0.57 -4.0 0 1 228.37 49.72
  Q 226.66 49.68 225.14 48.70
  A 2.38 2.36 -36.8 0 0 223.14 48.42
  L 218.96 49.72
  A 1.88 1.87 -47.3 0 1 217.99 49.76
  Q 216.48 49.40 215.33 48.64
  A 1.28 1.28 0.0 0 0 213.35 49.71
  L 213.44 66.52
  A 0.57 0.57 0.0 0 0 214.01 67.09
  Z"
/>
<path fill="#000000" d="
  M 140.43 54.18
  Q 139.92 61.75 140.09 69.33
  C 140.16 72.62 140.69 75.84 140.61 79.12
  A 0.92 0.92 0.0 0 1 139.59 80.02
  Q 133.31 79.32 127.73 79.83
  Q 127.16 79.88 127.04 79.32
  Q 126.47 76.64 126.68 74.35
  C 127.06 69.99 126.70 65.63 126.83 61.17
  C 127.30 45.13 127.07 29.21 126.87 14.50
  Q 126.82 11.51 127.18 8.56
  Q 127.25 8.00 127.80 7.99
  C 131.75 7.92 135.70 8.40 139.67 8.29
  C 143.33 8.20 149.76 8.06 152.98 10.03
  C 158.62 13.47 160.10 18.37 160.50 24.48
  Q 160.74 28.27 161.30 31.94
  C 162.12 37.31 160.66 46.04 155.96 49.85
  C 151.55 53.42 146.53 53.78 141.08 53.59
  A 0.63 0.63 0.0 0 0 140.43 54.18
  Z
  M 139.54 19.01
  L 140.36 41.37
  A 0.29 0.29 0.0 0 0 140.66 41.65
  L 143.29 41.56
  A 5.80 5.46 -2.1 0 0 148.89 35.89
  L 148.45 23.85
  A 5.80 5.46 -2.1 0 0 142.45 18.61
  L 139.82 18.71
  A 0.29 0.29 0.0 0 0 139.54 19.01
  Z"
/>
<path fill="#000000" d="
  M 250.24 54.07
  Q 249.33 53.88 249.32 54.35
  Q 249.08 66.72 249.39 79.17
  A 0.84 0.84 0.0 0 1 248.46 80.03
  Q 242.82 79.45 236.76 79.82
  Q 235.43 79.90 235.43 78.57
  Q 235.40 50.69 235.53 24.09
  C 235.54 22.29 236.00 20.80 235.82 18.99
  Q 235.32 14.08 235.80 9.00
  A 1.06 1.06 0.0 0 1 236.83 8.04
  Q 243.85 7.89 251.58 8.10
  C 254.46 8.18 259.81 8.38 262.42 10.04
  C 268.17 13.71 269.94 20.14 270.15 27.02
  Q 270.37 33.89 270.23 38.62
  Q 270.05 45.26 264.53 50.58
  A 1.84 1.83 -33.8 0 0 264.12 52.61
  Q 266.30 57.74 267.81 63.35
  C 268.38 65.45 269.52 67.22 270.07 69.35
  Q 271.15 73.55 273.08 77.95
  Q 274.01 80.05 271.72 79.86
  Q 266.14 79.37 260.00 79.83
  A 1.53 1.53 0.0 0 1 258.38 78.52
  C 257.82 74.61 255.84 70.59 254.80 66.94
  C 253.59 62.70 251.66 59.08 250.92 54.77
  A 0.87 0.86 1.0 0 0 250.24 54.07
  Z
  M 253.49 19.17
  Q 251.86 18.89 250.30 18.62
  Q 247.60 18.15 248.15 20.78
  Q 249.97 29.53 249.10 39.22
  Q 248.85 41.98 251.59 41.61
  L 254.90 41.17
  Q 257.25 40.85 257.27 38.48
  L 257.41 23.89
  Q 257.45 19.87 253.49 19.17
  Z"
/>
<path fill="#000000" d="
  M 74.83 90.92
  Q 76.48 91.85 77.11 93.72
  C 78.10 96.64 74.27 98.33 71.93 98.69
  Q 70.75 98.87 70.63 97.69
  L 70.60 97.38
  A 0.93 0.92 82.7 0 1 71.37 96.38
  Q 73.66 96.01 75.26 94.51
  A 0.67 0.67 0.0 0 0 74.94 93.37
  L 70.99 92.54
  A 1.40 1.39 -7.4 0 1 70.05 91.82
  C 68.40 88.52 76.36 87.35 78.04 87.26
  A 1.74 1.74 0.0 0 1 79.74 88.31
  L 80.02 88.97
  Q 80.50 90.10 79.28 89.96
  Q 77.03 89.71 74.94 90.17
  Q 73.92 90.40 74.83 90.92
  Z"
/>
<path fill="#000000" d="
  M 108.21 95.44
  Q 109.94 96.44 112.19 96.69
  A 0.96 0.95 -88.6 0 1 113.03 97.58
  L 113.06 98.05
  Q 113.13 99.18 112.01 99.09
  Q 108.95 98.85 106.38 96.98
  Q 105.83 96.58 105.57 97.20
  L 105.24 97.99
  Q 105.00 98.57 104.38 98.46
  Q 103.11 98.22 103.26 96.89
  Q 103.55 94.21 104.27 91.32
  A 1.25 1.24 -9.4 0 1 104.82 90.56
  Q 106.29 89.64 107.32 88.16
  Q 108.33 86.70 109.75 87.76
  Q 111.56 89.12 111.96 91.44
  Q 112.26 93.17 110.63 93.81
  L 108.26 94.75
  Q 107.52 95.04 108.21 95.44
  Z
  M 107.50 92.55
  L 109.37 91.74
  A 0.48 0.48 0.0 0 0 109.46 90.91
  Q 107.99 89.87 106.98 92.02
  A 0.40 0.40 0.0 0 0 107.50 92.55
  Z"
/>
<path fill="#000000" d="
  M 124.59 92.84
  L 126.91 92.59
  Q 127.37 92.54 127.72 92.83
  Q 128.31 93.32 127.79 94.20
  A 1.31 1.31 0.0 0 1 126.86 94.82
  L 123.50 95.32
  A 1.15 1.14 8.2 0 0 122.63 95.96
  Q 122.20 96.84 122.18 97.87
  A 0.77 0.77 0.0 0 1 120.94 98.47
  Q 119.83 97.61 120.25 96.25
  Q 120.44 95.63 120.07 95.09
  L 119.53 94.28
  Q 119.19 93.77 119.61 93.34
  Q 120.26 92.67 121.23 92.71
  Q 122.03 92.74 121.90 91.95
  Q 121.79 91.25 121.12 90.79
  A 1.03 1.03 0.0 0 1 121.31 88.98
  Q 124.61 87.65 128.27 87.17
  Q 129.33 87.04 130.07 87.80
  L 130.50 88.25
  Q 131.30 89.08 130.16 89.26
  C 127.82 89.64 124.54 89.09 124.04 92.27
  Q 123.94 92.91 124.59 92.84
  Z"
/>
<path fill="#000000" d="
  M 157.32 94.58
  Q 155.91 94.99 157.23 95.63
  Q 158.92 96.44 160.83 96.69
  Q 161.67 96.80 161.63 97.65
  L 161.60 98.19
  Q 161.56 99.18 160.58 99.10
  Q 157.51 98.84 154.69 96.70
  A 0.24 0.24 0.0 0 0 154.30 96.86
  Q 153.96 99.28 152.34 98.16
  A 1.04 1.03 22.3 0 1 151.90 97.12
  L 152.92 91.07
  Q 153.00 90.59 153.45 90.42
  Q 155.09 89.80 156.02 88.12
  A 1.56 1.56 0.0 0 1 158.35 87.65
  Q 159.77 88.76 160.50 90.65
  C 161.48 93.21 159.17 94.04 157.32 94.58
  Z
  M 157.09 90.55
  Q 156.29 91.01 155.76 91.79
  Q 155.22 92.59 156.17 92.45
  Q 157.00 92.32 157.73 91.94
  A 0.79 0.78 71.9 0 0 158.15 91.10
  Q 158.10 90.75 157.81 90.57
  A 0.70 0.68 45.8 0 0 157.09 90.55
  Z"
/>
<path fill="#000000" d="
  M 190.71 91.19
  L 190.50 91.99
  Q 190.19 93.19 191.38 92.82
  Q 192.88 92.35 193.83 92.76
  A 1.04 1.04 0.0 0 1 193.60 94.74
  L 189.58 95.41
  Q 189.01 95.51 188.91 96.08
  L 188.65 97.49
  Q 188.30 99.37 186.91 98.06
  Q 186.22 97.42 186.54 96.44
  A 1.76 1.75 35.9 0 0 186.28 94.85
  Q 185.85 94.27 185.95 93.59
  Q 186.06 92.82 186.85 92.85
  Q 187.51 92.88 187.99 92.48
  Q 188.59 91.98 188.07 91.40
  L 187.23 90.48
  A 0.86 0.86 0.0 0 1 187.52 89.11
  Q 190.60 87.75 194.39 87.17
  Q 195.55 87.00 196.44 87.77
  Q 196.75 88.04 196.94 88.41
  Q 197.35 89.18 196.48 89.29
  L 192.23 89.84
  Q 191.01 89.99 190.71 91.19
  Z"
/>
<path fill="#000000" d="
  M 205.57 90.53
  L 203.33 90.62
  A 1.09 1.08 -9.0 0 1 202.23 89.83
  L 201.98 88.97
  Q 201.77 88.23 202.53 88.15
  L 211.57 87.25
  A 0.80 0.60 -34.4 0 1 211.78 87.26
  Q 213.76 87.53 213.92 88.68
  Q 214.03 89.42 213.28 89.50
  L 209.88 89.84
  A 1.71 1.70 8.3 0 0 208.50 90.86
  L 206.47 95.63
  Q 206.19 96.29 206.40 96.97
  L 206.75 98.07
  A 0.58 0.58 0.0 0 1 206.22 98.83
  C 204.95 98.87 204.10 97.54 204.18 96.42
  Q 204.37 93.80 205.91 91.08
  A 0.37 0.37 0.0 0 0 205.57 90.53
  Z"
/>
<path fill="#000000" d="
  M 171.41 95.73
  L 170.56 97.98
  A 0.78 0.74 88.6 0 1 170.18 98.40
  Q 169.20 98.88 168.73 98.07
  Q 168.16 97.10 168.63 96.08
  L 171.34 90.26
  Q 171.60 89.70 172.17 89.44
  Q 173.30 88.93 174.09 88.06
  A 1.43 1.42 -29.4 0 1 176.55 88.74
  L 177.21 92.11
  A 1.07 1.05 -88.3 0 0 177.97 92.93
  Q 178.45 93.06 178.87 93.34
  A 0.65 0.65 0.0 0 1 179.02 94.26
  L 178.37 95.14
  Q 178.09 95.53 178.14 96.00
  C 178.30 97.39 177.17 99.16 175.59 98.40
  Q 175.19 98.21 175.01 97.85
  Q 174.69 97.21 175.33 96.88
  Q 175.67 96.71 175.79 96.35
  Q 176.06 95.49 175.22 95.84
  Q 173.37 96.62 172.08 95.55
  Q 171.62 95.17 171.41 95.73
  Z
  M 172.82 93.26
  Q 172.66 93.61 173.02 93.73
  Q 173.70 93.98 174.35 93.71
  Q 175.13 93.38 174.88 92.58
  L 174.70 91.99
  Q 174.46 91.19 173.87 91.77
  Q 173.19 92.43 172.82 93.26
  Z"
/>
<path fill="#000000" d="
  M 88.62 94.20
  A 0.86 0.86 0.0 0 0 89.83 95.06
  Q 93.89 93.24 94.24 88.84
  A 1.47 1.23 -39.9 0 1 94.29 88.56
  Q 94.68 87.45 95.27 87.65
  Q 95.63 87.78 95.80 88.12
  Q 96.73 90.04 96.13 91.84
  C 95.16 94.72 91.32 99.68 87.61 98.03
  Q 87.09 97.80 86.89 97.26
  Q 85.49 93.41 86.78 89.29
  A 0.71 0.70 -55.5 0 1 88.01 89.06
  L 88.25 89.38
  A 3.06 3.01 -61.7 0 1 88.87 91.52
  L 88.62 94.20
  Z"
/>
<path fill="#000000" d="
  M 138.38 95.51
  Q 140.25 96.02 142.52 96.01
  Q 143.85 96.00 144.09 97.23
  A 0.80 0.80 0.0 0 1 143.54 98.14
  C 140.95 98.95 137.10 98.61 135.83 95.68
  C 134.06 91.61 139.11 88.78 142.20 87.76
  Q 143.43 87.36 144.23 88.37
  Q 144.32 88.49 144.37 88.64
  Q 144.82 90.07 143.37 90.48
  Q 140.20 91.37 137.90 93.82
  A 1.03 1.03 0.0 0 0 138.38 95.51
  Z"
/>
</svg>
